<?xml version="1.0" encoding="utf-8"?>
<!-- Generator: Adobe Illustrator 16.0.0, SVG Export Plug-In . SVG Version: 6.00 Build 0)  -->
<!DOCTYPE svg PUBLIC "-//W3C//DTD SVG 1.1//EN" "http://www.w3.org/Graphics/SVG/1.1/DTD/svg11.dtd">
<svg version="1.1" id="Layer_1" xmlns="http://www.w3.org/2000/svg" xmlns:xlink="http://www.w3.org/1999/xlink" x="0px" y="0px"
	 width="15360px" height="800px" viewBox="0 0 15360 800" enable-background="new 0 0 15360 800" xml:space="preserve">
<g>
	<path fill="#00FF00" d="M12356.418,799.997h19.562C12366.148,798.68,12360.652,799.968,12356.418,799.997z"/>
	<path fill="#00FF00" d="M12311.125,796.732c-3.158,1.179-6.576,1.794-10.119,1.794c-8.34,0-18.086,3.303-33.156-4.979
		c-3.717-2.043-7.201-4.079-9.955-5.729l-32.285-1.153l-27.992,6.086l-13.742,5.745l-8,0.125h-6.303h-43.5h-10.863l-7.617-1.994
		c-0.232-0.248-5.717-6.132-11.287-12.695c-9.703-11.438-14.977-19.014-16.172-27.52c-1.33-3.707-5.559-13.03-9.625-21.161
		l-0.994-1.99l-0.627-2.136c-2.35-7.981-6.082-20.571-7.879-26.423c-0.348-0.363-0.746-0.764-1.172-1.176l-8.668,21.186
		c-0.504,3.315-1.383,8.717-2.51,14.181c-1.176,5.712-2.365,10.276-3.641,13.962c-1.166,3.376-2.475,6.203-4,8.648
		c-4.924,7.886-12.641,12.59-21.346,13.074c-5.67,2.064-19.727,8.654-32.264,15.172l-5.42,2.82h-6.113h-58.5h-3.078l-2.984-0.746
		l-59.996-15l-2.371-0.597l-2.209-1.04c-31.795-14.962-36.088-21.397-38.654-25.243c-0.551-0.828-1.594-2.308-2.695-3.868
		c-6.072-8.612-10.43-14.986-12.844-20.766c-1.643-2.484-6.033-8.15-10.74-13.884c-10.408-4.775-32.381-14.896-37.518-17.454
		c-0.803-0.378-3.445-1.469-5.57-2.349c-29.037-12.006-44.547-20.166-51.309-32.506c-4.562-3.35-15.613-9.155-21.23-12.104
		c-9.545-5.016-15.152-8.02-19.404-11.419c-5.219-4.177-11.002-10.604-19.234-19.937c-2.836-3.216-7.029-7.969-8.768-9.666
		c-8.691-6.476-12.229-16.962-18.465-44.884c-2.555-11.438-4.73-22.488-5.59-26.939c-4.295-11.76-10.9-29.625-13.352-35.725
		c-2.76-3.815-12.148-13.905-21.15-22.711l-20.176-16.557l-0.689-0.564l-0.65-0.616l-10.201-9.668l-8.23-3.4l-0.67,0.749
		l-11.877,37.271l-0.281,0.884l-0.348,0.86l-18,44.724l-6.303,15.666h-16.889h-32.996h-7.074l-6.023-3.706l-5.195-3.195
		l-8.758,2.818l-24.957,19.703l-0.785,0.622l-0.836,0.556l-26.998,18l-0.307,0.204l-0.312,0.196l-47.996,29.998l-1.684,1.052
		l-1.828,0.771l-35.887,15.186l-25.855,20.413l-2.172,1.716l-2.5,1.2l-37.496,18l-7.039,3.378l-7.707-1.229l-66-10.5l-3.488-0.557
		l-3.199-1.498l-47.996-22.5l-8.668-4.062l-3.734-8.812l-20.059-47.284l-0.922-2.182l-0.5-2.315l-41.293-191.701l-10.398-15.896
		l-14.816-11.934l-4.957-3.989l-2.441-5.874l-8.242-19.803l-9.07-7.871l-2.637-2.292l-1.617-2.487
		c-0.309-0.423-0.699-0.904-1.094-1.359c-0.203,0.002-0.387,0.01-0.547,0.017c-11.281,3.182-23.023,6.893-26.578,8.398
		c-4.254,2.525-9.113,3.849-14.176,3.849c-4.047,0-14.422-0.003-33.039-16.158l-24.68-10.468l-4.48-1.902l-3.441-3.442
		c-0.164-0.165-0.352-0.351-0.543-0.542c-4.34-1.219-10.707-3.112-14.367-4.573c-0.648-0.239-2.473-0.86-3.949-1.36
		c-11.145-3.786-20.141-6.974-26.043-10.664c-3.277-2.05-6.922-5.251-10.41-9.058c-0.461,1.587,2.027-7.947,1.395-5.943l-3.75-14.25
		l0.5-2l-0.75-2.75l-1.25-6.5l-2.586-7.341l-2.578-0.01l-0.727,93.833l-33.266,34.979l-26.301,41.174l-21.211,174.925l-0.48,3.979
		l-1.699,3.625l-10,21.334l-1.988,4.242l-3.387,3.229l-14.668,14l-5.973,5.7l-8.191,1.023
		c-47.07,5.876-122.051,15.322-136.781,17.392c-7.648,3.249-29.305,12.932-34.727,16.034c-4.461,3.288-10.66,5.916-25.359,11.956
		c-5.859,2.41-15.457,6.353-18.711,8.057c-4.938,3.62-10.945,5.46-17.883,5.46c-8.43,0-18.578-2.718-31.992-6.561
		c-1.059-0.305-2.238-0.645-3.402-0.974c-18.594,9.407-23.848,11.778-26.992,12.826c-4.699,1.565-75.652,18.396-101.832,24.523
		c-100.664,23.58-106.418,23.58-110.617,23.58c-4.465,0-8.625-1.041-12.391-3.096c-0.957-0.396-3.02-1.145-4.434-1.652
		c-5.086-1.841-9.457-3.421-13.309-5.784c-1.641-0.44-4.129-1.012-6.559-1.502c-2.207,0.021-5.66,0.047-9.734,0.047
		c-9.441,0-17.379-0.132-23.59-0.393c-11.906-0.498-24.215-1.018-32.215-11.684c-1.293-1.722-2.664-3.907-5.391-8.292
		c-1.453-2.328-4.215-6.767-5.77-9.055c-2.773-2.807-6.617-8.132-14.703-21.493c-2.363,4.595-4.727,9.255-6.051,11.957
		c-0.57,4.308-1.602,13.592-2.543,23.026c-1.07,10.687-6.719,18.979-13.629,24.334l-12.676,21.013l-6.922,11.474l-13.387,0.592
		c-19.809,0.869-41.18,3.192-63.801,5.654c-23.551,2.562-47.898,5.212-71.715,6.286c-1.469,0.066-2.973,0.104-4.473,0.104
		c-18.488,0-36.375-5.079-52.16-9.562c-12.727-3.608-24.746-7.022-34.148-7.022c-0.578,0-1.105,0.012-1.621,0.032
		c-64.348,3.008-111.266,21.954-117.523,24.604c-3.492,1.984-8.09,2.504-26.531,10.423l-7.008,1.464l-5.285-0.061l-52.5-0.584
		c-2.773,0.147-11.246,0.584-17.941,0.584c-4.531,0-8.789-0.126-12.891-1.153c-0.633-0.016-1.516-0.03-2.715-0.03
		c-7.754,0-18.988,0.56-19.102,0.562l-1.887,0.095l-1.883-0.189l-45.34-0.849h-22.07h-2.418l-2.371-0.462
		c-32.969-6.435-36.332-8.959-40.223-11.881c-7.105-5.32-9.902-12.556-11.75-17.342c-0.094-0.238-0.203-0.522-0.309-0.8
		c-4.105-5.55-6.039-12.492-5.793-20.769c-1.41-1.749-2.664-3.265-3.582-4.325c-2.512-1.672-5.492-3.965-9.805-7.278
		c-1.738-1.338-4.395-3.385-5.988-4.553c-1.582-0.693-3.746-1.688-7.047-3.211c-1.414-0.648-3.309-1.521-5.191-2.381l-6.973,9.146
		l-3.246,4.265l-4.711,2.558l-21.043,11.426c-22.16,18.821-26.996,21.596-29.379,22.803c-1.66,0.974-6.656,4.357-9.676,6.407
		c-9.223,6.254-12.332,8.356-16.598,9.778c-5.426,1.812-15.379,2.628-20.707,2.628c-2.676,0-8.629,0-14.805-2.452
		c-2.707,0.16-6.078,0.548-8.082,0.842l-6.406,0.938l-6.078-2.29c-11.797-4.463-26.75-10.229-31-12.354
		c-3.031-1.518-19.559-8.604-23.32-9.948c-2.406-0.712-12-2.899-19.754-4.562l-24.309-4.488l-12.844,3.896l-3.551,1.078h-3.711H8999
		h-2.359l-2.316-0.442c-17.404-3.312-21.156-5.188-23.172-6.194c-2.805-1.4-17.5-9.479-23.688-12.884l-2.582-1.426l-2.176-1.979
		l-9.348-8.498h-6.586c-2.672,1.099-7.168,3.254-11.332,5.385c-5.648,6.634-15.293,17.854-19.234,21.792
		c-1.637,1.634-6.613,6.609-21.238,12.947c-11.57,5.015-17.965,6.083-21.328,6.312c-4.75,1.024-19.934,5.536-32.027,9.389
		l-9.941,3.162l-9.242-4.844l-31.496-16.5l-0.332-0.174l-0.324-0.183l-22.926-12.896l-61.73-27.07l-3.074-1.352l-2.613-2.112
		l-26.77-21.674l-3.043-1.881l-2.496,0.761l-11.578,5.788l-12.332,12.868l-6.324,6.604l-9.09,0.964l-44.001,4.668l-7.758,0.824
		l-6.85-3.736l-14.668-8l-0.975-0.532l-0.924-0.612l-12-8l-5.523-3.686l-2.969-5.938l-2.024-4.053l-21.46-20.303l-2.183-2.062
		l-1.63-2.521l-11.891-18.386l-7.117-10.458l-10.182-14.964l11.033-14.348l1.868-2.429c0.168-4.608,0.245-8.811,0.197-11.214
		c-1.211-4.692-1.466-10.521-0.939-18.854c-2.12-5.63-4.516-11.959-5.188-13.645c-1.914-4.78-2.252-9.464-2.68-15.395
		c-0.144-1.994-0.38-5.273-0.672-7.514c-4.983-7.986-5.41-17.227-4.456-24.786c-1.75-3.376-3.857-7.493-5.982-11.774v7.516v2.712
		l-0.582,2.647l3.086-20.53l-4.333-56.666l-1.496,8.217l-0.73,84.804l-2.526,11.51l-0.304,1.388l-0.46,1.345
		c-9.727,28.434-13.083,33.195-15.232,35.903c-0.288,0.494-0.761,1.484-1.039,2.188l-2.677,7.425l-6.43,4.252
		c-8.729,6.07-14.537,9.634-18.608,11.777v4.362v7.57l-4.198,6.298l-16,24l-1.374,2.061l-1.75,1.75l-7.494,7.494
		c0.221,7.797,0.043,15.723-1.113,20.922c-1.971,8.876-7.973,16.938-17.834,23.947c-3.596,2.559-10.384,6.9-17.25,8.729
		c-3.886,1.424-18.218,7.631-30.208,12.979l-34.446,18.851l-3.282,1.798l-3.666,0.756c-44.5,9.182-47.626,9.182-50.384,9.182
		c-6.807,0-26.352-4.073-36.578-10.462c-5.504-3.443-9.424-7.633-11.986-10.556c-2.396-1.293-5.774-3.201-10.729-6.093
		c-1.562,0.225-2.996,0.44-4.187,0.639c-2.334,1.889-5.551,4.662-7.42,6.419c-1.145,1.773-3.256,5.764-4.479,8.367l-3.359,7.14
		l-6.854,3.918c-23.312,13.324-28.938,13.324-33.453,13.324c-2.104,0-4.189-0.25-6.209-0.742l-0.066-0.016l-0.067-0.021
		c-6.285-1.567-9.735-3.864-33.58-22.312c-2.095-1.619-4.444-3.438-5.285-4.066c-2.205-1.49-5.071-3.785-21.474-21.613l-0.03-0.03
		l-0.03-0.036c-5.453-5.974-14.688-15.766-18.146-18.834c-6.101-5.42-10.272-12.016-13.039-16.374
		c-0.276-0.438-0.606-0.959-0.897-1.413c-0.355-0.337-0.695-0.672-1.021-1.002c-8.733-4.518-14.149-13.334-17.565-19.176
		l-2.146-3.12l-2.752,15.975l-0.471,2.723l-1.051,2.556l-2.834,6.883l0.49-76.438l-2.586-0.013l-0.53,82.827l-4.44,10.783
		l-13.537,2.39c-5.463,0.965-9.818,1.718-13.312,2.304c-0.91,2.036-1.826,4.157-2.586,6l-1.215,2.944l-1.914,2.546
		c-17.535,23.312-21.207,25.15-25.459,27.278c-3.75,1.872-7.986,3.1-20.785,4.63c-2.848,0.34-12.604,1.45-18.646,1.45
		c-2.189,0-4.071-0.144-5.851-0.441c-1.905-0.243-9.513-1.012-16.248-1.689c-55.858-5.638-59.295-6.505-64.842-9.277
		c-5.668-2.834-10.08-7.083-14.226-11.766c-5.043-1.002-12.729-2.292-18.885-3.192l-0.287-0.042l-0.285-0.048
		c-7.437-1.268-31.959-5.447-35.385-6.135c-4.576-0.914-8.541-1.706-37.217-22.042l-5.604-3.977l-148.092-8.815l-16.545,24.42
		l-1.408,2.078l-1.795,1.756l-28.498,27.925l-2.32,2.274l-2.828,1.604l-19.498,11.074l-3.387,1.924l-3.812,0.802l-28.5,6
		l-5.484,1.154l-5.453-1.298c-12.164-2.897-33.29-7.995-38.113-9.604c-4.393-1.466-25.166-9.901-36.369-14.479
		c-27.896-4.456-32.556-5.996-34.111-6.519c-3.079-0.974-21.383-5.849-37.418-10.03l-3.448-0.897l-3.06-1.828l-30.672-18.312
		l-2.668,6.935l-7.229,20.367l-1.931,5.436l-4.109,4.038l-38,37.332l-6.666,6.551l-9.326,0.569l-32.666,2l-8.324-0.13l-7.07-4.021
		l-12-8l-4.586-3.061l-2.875-4.704l-2.092-3.422c-2.987-1.386-5.905-2.715-8.252-3.75c-5.346,1.127-13.523,2.937-21.051,4.634
		l-26.563,11.869c-7.817,5.771-12.354,9.213-16.957,10.229l-2.378,0.007c-1.225-0.844-2.67-2.905-3.779-1.957l-2.307,1.973
		l-49.536,0.127v0.001c-5.601-0.407-7.869-0.232-12.385,0.104c-1.983-0.826-5.183-1.854-7.078-2.565
		c-4.127-1.551-6.937-2.606-9.349-3.844c-0.729-0.199-1.758-0.445-2.545-0.604l-0.897-5.597l-4.25-0.75l-2.25-5.75l-3-28.5
		l-3.235,11.486l-8.515,23.014l-0.045,9.297c-6.776,1.54-16.071,3.376-21.867,3.376c-2.492,0-4.787-0.269-7.021-0.818
		c-3.717-0.93-7.703-2.609-16.211-8.147c-3.104-2.021-5.432-3.654-7.18-4.959c-11.342-3.686-49.473-13.757-56.555-15.041
		c-6.986-0.898-15.857-4.404-31.586-11.304c-0.793-0.35-1.703-0.746-2.396-1.048c-3.179-0.752-11.388-2.544-18.914-4.147
		c-4.694-0.081-15.414-0.249-23.418-0.249c-3.871,0-5.875,0.04-6.842,0.071c-2.694,0.424-5.705,0.521-9.801,0.521
		c-3.631,0-7.873-0.096-10.976-0.181l-48.146,15.083l-19.213,12.229l-1.418,0.899l-1.524,0.706
		c-37.582,17.345-41.908,16.863-46.896,16.863c-2.26,0-4.44,0.197-6.567-0.364c-3.976-0.542-16.211-1.57-26.084-2.259l-1.25-0.088
		l-1.234-0.214c-8.861-1.521-19.684-3.296-22.703-3.686c-2.26-0.128-5.449-0.577-14.379-1.891c-2.125-0.312-4.889-0.719-7.082-1.028
		c-0.264,0.079-0.516,0.155-0.746,0.227c-7.203,2.156-11.943,3.472-16.998,3.472c-0.594,0-1.186-0.021-1.771-0.06
		c-2.158,0.276-6.207,0.959-10.186,1.718l-16.936,2.628l-49.85,0.5l-5.691-0.466l-1.328-0.871l-1.207-1.033
		c-1.521-1.306-3.414-2.852-4.498-3.686c-4.416-2.462-7.812-6.104-10.937-10.556l-1.312,0.131l-8.438,0.845l-7.209-4.464l-10.5-6.5
		l-6.664-4.124l-3.115-7.188l-6.479-14.952l-3.576-8.124l-4.188-4.188l-0.146-0.145l-0.142-0.147
		c-0.317-0.327-0.642-0.661-0.97-0.998l-1.01,1.153l1.818-20.293l-6-5.875l-6.25,25.875l3.088,8.683l-1.236,7.638l-8.705,3.729
		l-3.059,3.491l-1.041-1.735c-11.301,4.845-12.908,5.378-13.771,5.666v-0.001c-2.723,0.908-5.52,1.353-8.547,1.353
		c-0.779,0-2.229,0-5.104-0.359l-4.986,4.275l-3.787,3.246l-4.742,1.544c-6.521,2.122-14.352,4.751-18.254,6.146l-5.465,7.854
		l-7.037,10.12l-12.312,0.572c-10.041,0.477-21.045,1.314-25.703,1.938c-3.055,1.218-6.729,2.027-11.107,2.027
		c-5.984,0-14.174-1.396-27.189-3.965c-1.477-0.291-3.309-0.65-3.887-0.752c-3.154-0.471-14.908-2.625-22.033-3.967
		c-21.113-3.976-22.672-4.6-25.033-5.544l0.096,0.038c-1.367-0.528-8.404-3.019-16.105-5.719l-7.336,1.771l-3.578,0.863
		l-3.674-0.204l-18-1l-2.961-0.164l-2.838-0.852l-30-9l-2.832-0.854l-2.557-1.484l-25.438-14.803l-16.527-5.783l-19.682-4.688
		c-1.895-0.438-29.268-6.822-42.4-11.024c-14.369-4.602-21.104-12.82-24.49-19.144c-2.076-0.505-4.205-0.965-5.363-1.215
		c-2.842-0.614-4.896-1.058-6.932-1.736c-24.225-8.072-32.162-11.35-35.221-12.84c-2.484-1.017-11.111-3.894-17.904-6.038
		l-3.105-0.979l-2.752-1.745c-5.58-3.538-11.686-7.251-15.373-9.373c-4.383-0.234-9.43-0.547-10.299-0.604
		c-15.949-0.994-17.287-1.328-19.504-1.884c-1.109-0.276-2.971-0.743-31.441-10.4l-15.674-4.587l-0.957,1.914l-1.361,2.729
		l-1.979,2.315l-9.973,11.688c-3.623,22.082-5.258,30.569-6.434,34.758c-0.607,4.068-1.848,16.451-2.709,26.479l-0.41,4.761
		l-2.141,4.271c-0.121,0.247-3.051,6.104-6.287,12.188c-6.57,12.351-10.375,18.985-18.395,22.994
		c-1.305,0.647-3.27,1.634-30.602,11.621l-7.791,2.104l-7.926-1.627c-5.604-1.67-24.131-7.194-27.27-8.242
		c-5.707-1.9-10.479-5.552-18.416-11.838c-1.027-0.812-2.354-1.857-3.166-2.479c-1.975-1.081-6.172-3.434-15.562-8.779
		l-24.651,2.275l-3.951,0.36l-3.867-0.876l-26.5-6l-6.34-1.434l-4.838-4.343c-20.002-17.949-21.49-19.44-21.979-19.932
		c-4.942-4.943-3.731-8.175-4.817-11.8c-0.035-0.057-3.149-2.458-3.187-2.514c-0.668,2.403,1.877-2.087,0.937-0.486
		c-1.045,2.847-2.715-9.001-4.5-3l0.75-2.375l1-60l-7.479,13.251l-0.908,83.454l-0.754,2.534l-11.894,4.281
		c-37.397,13.464-43.584,13.464-47.278,13.464c-6.938,0-12.049-2.485-15.383-4.912c-0.933-0.558-2.972-1.681-4.371-2.451
		c-5.319-2.931-8.729-4.84-11.554-7.101c-5.729-4.584-10.076-11.352-12.5-17.146c-0.405,0.221-0.797,0.436-1.158,0.629
		c-9.871,5.376-15.076,8.213-21.976,8.486c-2.688,0.531-8.465,1.911-14.097,3.328c-4.565,3.655-7.44,5.433-10.049,6.561
		c-0.455,0.244-1.092,0.594-1.604,0.869c-11.598,6.315-19.312,9.895-26.873,10.691c-0.938,0.099-1.586,0.206-2.336,0.33
		c-1.465,0.237-3.471,0.569-6,0.569c-2.336,0-5.166-0.291-8.189-1.235c-0.502,0.038-0.994,0.078-1.418,0.108
		c-2.314,0.188-4.502,0.362-6.611,0.362c-2.568,0-4.902-0.271-7.133-0.828c-2.885-0.722-17.631-6.004-22.807-9.452
		c-2.701-1.802-4.758-3.818-9.562-8.624c-1.071-1.07-2.764-2.761-3.639-3.598c-0.73-0.571-1.656-1.354-2.795-2.423l-3.078,1.307
		l-14.271,8.06l-4.39,2.479l-5.004,0.584l-15,1.75l-6.472,0.754l-6.021-2.5l-12.834-5.332l-9.644-4.006l-3.933-9.674l-1.832-4.519
		l-4.11-3.229l-0.285-0.225l-0.272-0.229c-5.465-4.552-12.244-10.134-13.67-11.212c-4.051-3.035-7.078-6.938-12.213-14.906
		c-0.601-0.125-1.194-0.27-1.783-0.436c-6.181-1.739-11.953-5.641-15.724-8.618l-3.224-2.548l-2.235-3.446l-12.562-19.342
		l-3.701-5.693l-0.31-6.782l-0.668-14.666l-0.131-2.896l0.533-2.85l2-10.666l0.412-2.2l6.28-0.358l-1.325-7.146l0.575-19.854
		L5031,588l-6.605-28.225L5020,559l-6.5,35.25l1.197,24.977l0.053,29.023l-1.5,5.75l-1,5.5l1.098,37.062l-0.435,3.429l-1.349,3.181
		l-6.06,14.289l-4.849,20.6l-3.086,13.106l-12.644,4.638l-20,7.334l-2.021,0.738l-2.117,0.386l-17.768,3.229
		c-18.939,10.812-24.598,13.197-29.477,13.707c-1.396,0.363-3.58,0.968-5.297,1.439c-13.896,3.829-20.598,5.508-26.41,5.508
		c-5.638,0-10.021-1.636-13.041-3.32c-2.215-1.035-9.34-3.949-15.674-6.456l-6.061-1.264l-32.001,14.104l-4.817,2.122H4805h-40
		h-2.645l-2.59-0.554c-0.394-0.084-9.687-2.078-19.396-4.358c-19.807-4.646-26.105-6.556-31.555-11.609
		c-2.648-2.131-13.25-9.922-22.48-16.604l-9-4.875h-25.662l-20.461,9.154l-7.486,3.35l-8.018-1.735l-40-8.669l-5.312-1.147
		l-4.354-3.252c-21.537-16.085-45.83-34.021-51.666-38.025c-3.123-1.649-0.712-4.967-7.876-11.504l-7.333-6.166l-5.833-7.167
		l-0.166-17.17L4491,647.5l-11.5-36l-4.833,0.667l1.788,92.8l-0.257,0.821l-4.96,15.876l-16.561,1.56
		c-57.836,5.442-59.599,5.442-61.01,5.442c-3.525,0-19.447-1.78-24.244-2.328c-21.774-2.477-25.68-3.419-29.771-5.396
		c-0.938-0.396-3.396-1.357-5.396-2.146c-24.472-9.606-30.733-12.561-35.902-19.438c-1.593-2.062-12.73-15.709-22.677-27.83
		l-1.524-1.856l-1.142-2.112l-24.157-44.69l-20.333-15.758l-16.458-7.771h-17.727h-30h-14.586l-7.181-12.696l-4.912-8.688
		l-10.504-5.252l-2.978-1.486l-2.479-2.212l-30.668-27.334l-2.768-2.464l-1.934-3.162l-4.667-17.207l-0.815,0.889l-3.686-41.222
		l-2.999,11.667l-4.667,36l-6.766,12.43l-1.618,1.764l-1.925,1.422l-15.334,11.332l-0.653,0.479l-0.688,0.44l-9.334,6l-9.318,5.99
		l-10.695-2.883l-17.332-4.666l-6.21-1.673l-4.634-4.461l-14.729-14.182c-13.524-5.827-27.381-11.75-30.338-12.939
		c-4.08-1.348-29.176-9.591-46.06-15.135l-9.553-3.136l-4.723-8.876l-12.431-23.371l-36.323-14.911l-6.539-2.684l-4.164-5.71
		l-13.55-18.574l-3.015-4.13l-1.148-4.982l-9-38.998l0.406-1.435l0.188-0.643l0.471-0.766l0.125-0.141l0.438-0.221l1.438-0.578
		L3798.5,310l-5.684-3.495L3791,344.75l-54.084-9.094l0.014,3.837l-0.863-1.188l-4.781-6.573V323.6v-8.868
		c-3.166-3.652-6.057-6.818-7.562-8.253c-2.104-1.252-6.798-3.751-11.429-6.131l-26.684-1.16l-21.379,3.207l-24.945,18.708
		l-0.555,0.416l-0.574,0.389l-27,18l-5.326,3.55L3599.46,344l-28.83,2.507c-12.812,7.573-37.682,22.21-43.154,24.945
		c-4.433,2.219-25.321,13.132-35.157,18.281c-4.897,3.768-18.647,14.335-22.427,17.191c-0.5,0.379-1.149,0.898-1.914,1.502
		c-11.685,9.265-22.368,16.931-34.79,16.931c-4.954,0-9.79-1.275-13.979-3.688c-3.677-2.114-6.634-4.87-9.011-7.998l-10.459,14.438
		l-9.586,19.102l-3.25,6.479l-6.209,3.731l-59.896,36.028c-22.154,13.776-48.726,30.994-54.793,35.904
		c-3.132,3.438-11.283,10.647-36.007,22.33l-1.512,0.716l-1.592,0.506l-58.445,18.597c-3.584,4.694-8.75,11.393-14.144,18.157
		c-5.834,7.324-10.744,13.226-14.592,17.548c-4.082,4.582-8.812,9.89-15.104,13.061c-2.913,3.269-8.103,10.03-12.195,15.979
		l-7.217,10.479l-12.724,0.346l-56.996,1.5l-3.32,0.086l-3.229-0.782c-8.513-2.064-51.613-12.598-64.387-17.388
		c-6.552-2.456-25.54-5.977-36.93-7.687l-6.068-0.911l-4.96-3.616l-53.268-38.871c-22.054-9.598-68.156-29.895-77.724-35.965
		c-5.18-3.285-34.642-20.875-45.556-27.375l-3.651-2.176l-2.729-3.26l-11.483-13.72l-1.652-0.597l-38.573,6.431l-4.792,0.798
		l-4.74-1.055c-6.938-1.543-67.998-15.111-74.14-16.647c-6.08-1.521-60.962-15.964-63.294-16.578l-5.562-1.464l-4.36-3.746
		l-52.496-45.088l-3.812-3.274l-2.252-4.489c-14.848-29.64-20.819-42.148-23.36-47.81c-3.146-3.02-10.086-8.835-17.136-14.354
		l-46.325-14.989c-54.398-15.146-58.998-17.773-61.748-19.345c-4.973-2.841-5.955-7.929-8.929-10.537
		c-3.86-3.39-5.907-7.595-7.833-9.833l-4.438-23.223l-2.58-0.002L2286.333,290l-9.733,1.013l-97.777,14.726l-66.781,13.75
		l-0.68,0.14l-0.688,0.104l-63.578,9.448l-17.588,24.354l-8.791,26.375l-0.974,2.92l-1.652,2.596l-14,22l-4.878,7.664l-8.658,2.744
		l-41,13l-0.802,0.256l-0.816,0.198l-45,11l-2.926,0.716H1897h-20.751l-13.979,11.982l-3.657,3.136l-4.562,1.552
		c-36.938,12.562-49.76,16.517-55.647,17.759c-2.594,1.074-8.239,3.808-13.632,6.59l-20.485,16.549l-18.688,32.029l-0.379,0.647
		l-0.414,0.624c-11.428,17.141-16.198,23.38-18.479,26.037c-1.956,3.193-6.605,12.259-8.919,16.771
		c-3.782,7.372-5.162,10.032-6.603,12.19c-3.611,5.418-8.759,9.382-27.288,22.26c-1.551,1.077-3.37,2.345-4.528,3.164
		c-2.665,2.938-9.271,11.391-14.836,18.822l-15.74,41.666c-15.854,43.019-19.041,46.208-22.729,49.896
		c-1.53,1.533-5.603,5.604-20.397,12.271c-14.354,6.466-21.396,7.296-25.924,7.296c-4.473,0-8.672-0.959-12.479-2.854l-0.027-0.017
		l-0.024-0.014c-1.609-0.809-3.224-1.809-4.831-2.997l-6.123,7.041l-4.104,4.716l-5.836,2.231l-34,13l-17.498,6.688l-11.334-14.914
		c-0.204-0.27-5.059-6.662-9.938-13.548c-9.208-12.995-14.549-21.127-13.646-31.542c0.001-1.952-0.186-7.216-0.323-11.141
		c-0.629-17.767-0.729-24.247,0.156-29.117c0.195-3.286,0.087-12.637-0.161-21.508l-4.546-21.096l-1.147-2.299l-0.658-2.48
		c-0.244-0.926-1.845-3.653-2.834-7.396l-8.333-48l-4.833,13.334l-1.167,26.5l-0.333,7.666L1435,650.606v20.396v7.57l-4.198,6.298
		l-24,36l-3.978,5.966l-6.534,2.95l-27.97,12.631L1336.89,768.3l-1.012,0.834l-1.094,0.729l-19.449,12.854l-6.869,4.791
		l-3.632,2.534l-4.282,1.132l-8.832,2.334l-8.426,2.229l-7.983-3.492l-5.334-2.334l-0.587-0.258l-0.568-0.286l-6-3l-1.207-0.604
		l-1.134-0.728c-4.112-2.646-10.396-6.56-14.577-8.976c-0.472-0.011-1.021-0.017-1.66-0.017
		c-10.506-0.002-29.031,1.587-38.429,2.501l-23.881,9.14l-4.526,1.733l-4.854-0.086l-37.334-0.666l-1.945-0.034l-1.918-0.336
		c-10.746-1.881-24.279-4.021-27.812-4.295c-2.756-0.021-9.452-0.377-27.691-6.667l-3.685-8.165l-4.08-21.685l-3.587-3.815
		l1.355,40.871c-21.312,15.121-28.424,15.117-34.856,15.117c-8.188,0-17.271-2.355-27-9.655l-2.462-1.846l-1.94-2.395
		c-7.897-9.719-17.995-21.544-22.491-26.15c-7.112-4.031-12.144-10.967-16.473-16.938c-0.706-0.973-1.396-1.942-2.056-2.882
		l-28.941-7.616l-1.634-0.43l-1.562-0.646l-28.423-11.762c-2.006-0.745-7.142-2.812-22.173-9.493l-0.521-0.229l-0.508-0.256l-20-10
		l-7.283-3.645l-3.739-7.229l-15-29l-0.896-1.731l-0.617-1.848l-8.903-43.03c-3.607-10.108,4.806-15.077,3.126-20.375l-6-41l-7-15
		l-2.504,67.656v2.342V643v3.078l-0.745,2.986c-8.39,33.547-14.905,41.366-17.05,43.938c-6.198,7.44-19.69,17.862-25.205,21.996
		l-1.537,1.154l-1.698,0.899l-25.546,13.625L711.4,758.762l-11.901,14.65l-17.349-7.436l-28-12l-3.582-1.534l-2.943-2.556
		l-13.833-11.984l-0.823,3.292l-4.339,3.003l0.089-38.6l-0.25-0.003l-0.089,38.772l-3.151,2.181l-13,9l-10.274,7.116l-11.856-3.952
		l-30.22-10.071l-24.737,3.905l-12.525,11.136l-3.953,3.515l-5.036,1.61c-16.142,5.164-45.142,13.83-58.013,13.83
		c-4.885,0-8.912-0.979-12.188-2.42c-0.099,0-0.2-0.001-0.308-0.001c-6.605,0-16.543,1.126-19.814,1.562l-5.721,0.758l-5.482-1.822
		c-24.176-8.06-27.797-10.474-29.959-11.916c-1.204-0.804-4.406-2.938-22.672-19.056l-3.464-3.058l-2.142-4.092l-20.732-39.578
		c-27.278-32.436-30.323-38.521-31.482-40.843c-3.038-6.073-18.494-38.794-20.246-42.504l-0.406-0.856l-0.34-0.892l-5.49-14.354
		l-7.722,35.715l-1.32,6.1l-4.032,4.768l-11,13l-1.706,2.019l-2.092,1.616l-22,17l-15.754,12.174l-15.39-12.63
		c-41.878-34.359-43.762-37.188-45.944-40.458c-1.838-2.76-4.064-6.754-7.202-19.305c-0.041-0.166-0.082-0.331-0.123-0.494
		c-6.334-2.236-14.904-4.997-21.997-7.105L112,613.919l-4.746-5.38l-15-17l-6.65-7.538l0.418-10.042
		c0.35-8.464,0.505-17.774,0.379-21.755c-1.73-4.787-6.503-16.831-10.553-26.773l-0.796-1.95l-0.456-2.058l-8-36L66,482.743v-2.744
		v-11.615l-1.584-2.448l-5.969,7.059L54,498.189v30.81v3.67l-1.054,3.514l-6,20l-0.836,2.787l-1.456,2.522L31.305,584.63L0,609.58
		V800l1276.916-0.009h6.376H3831h9.334H5101.5h19.166h1263.382l0.036,0.009l52.438,0.084l-0.383-0.092h502.615V800h66.184v-0.003
		h654.154H7680h1269h10.527h1729.414h19.164h132.328h38.996h1476.633c-7.396-0.017-16.82-0.913-25.938-1.789
		C12323.041,797.531,12315.732,796.831,12311.125,796.732z"/>
	<path fill="#00FF00" d="M15321.266,296.706c-1.354,0-2.695-0.104-4.018-0.31c-0.412-0.011-1.047-0.021-1.977-0.021
		c-1.893,0-4.068,0.04-6.045,0.089l-40.965,22.939l-6.461,4.746l-1.594,1.172l-1.756,0.903c-2.318,1.191-14.459,7.277-26.029,9.851
		c-4.25,0.946-5.684,1.88-8.41,4.604c-7.217,7.218-15.143,10.229-19.877,12.023c-0.428,0.162-0.939,0.354-1.381,0.529
		c-2.879,2.967-13.516,14.776-41.848,53.603c-20.047,27.47-35.523,41.748-44.773,50.28c-2.264,2.088-5.078,4.686-5.857,5.632
		l-5.467,7.288l-8.982,2.021l-38.199,8.604l-12.721,13.953c-11.564,60.737-18.639,94.763-21.039,101.164
		c-1.719,4.584-7.041,22.87-11.734,39.004c-2.537,8.712-5.156,17.721-7.705,26.317c-3.572,12.064-8.955,21.697-15.99,28.621
		c-7.887,7.766-17.854,12.036-28.066,12.036c-11.758,0-22.492-5.563-28.711-14.889c-0.938-1.401-1.793-2.771-2.621-4.088
		c-1.324-2.107-3.293-5.248-4.367-6.302c-7.391-4.348-12.508-10.978-16.152-17.49c-0.637,2.447-1.32,4.963-2.059,7.49
		c-6.938,23.854-14.82,37.438-25.893,44.267c-0.383,1.78-0.967,3.933-1.988,6.249c-4.318,9.78-13.518,15.891-24.059,16
		c-1.51,0.062-7.215,0.46-12.264,0.812c-14.186,0.989-33.613,2.35-42.812,2.35c-3.211,0-5.484-0.151-7.594-0.506
		c-4.141-0.691-8.086-1.352-40.762-19.047c-11.629-6.303-30.164-16.61-34.961-19.809c-4.555-3.038-12.621-9.68-23.523-18.729
		c-3.367-2.797-7.559-6.276-8.613-7.076c-7.668-5.75-10.668-13.706-16.121-28.147c-2.199-5.822-6.773-17.944-9.09-21.143
		c-5.535-7.61-12.137-20.973-17.301-32.302l0.605-39.068l-2.422-0.005l-0.527,33.864c-1.75-3.954-3.242-7.44-4.34-10.048l0.59-1.61
		l-44.223-29.955l-1.633,4.479c-0.77-3.471-1.402-7.521-2.18-12.534c-0.633-4.101-1.797-11.622-2.543-14.172
		c-1.641-3.9-4.242-10.873-8.246-21.646c-2.801-7.538-6.285-16.921-7.539-19.855c-4.125-9.615-3.754-16.896-2.637-22.343
		c-1.156-11.671-2.453-16.812-3.043-18.678c-0.598-0.673-1.453-1.583-2.082-2.254c-5.621-5.987-15.027-16.004-14.402-30.807
		c0.008-0.233,0.02-0.475,0.035-0.715c-3.094,1.729-5.883,2.835-7.75,3.573c0,0.001-0.004,0.002-0.004,0.004
		c-4.156,5.858-8.492,11.901-14.539,18.109c-0.941,1.802-2.465,5.906-3.508,8.713c-2.266,6.111-4.836,13.04-8.656,19.406
		c-3.566,5.94-5.52,25.832-7.531,49.271c-2.613,30.536-4.746,38.026-10.16,51.643c-0.738,1.849-1.496,3.761-2.34,6.003
		c-1.43,3.812-0.285,15.307,0.473,22.909c0.98,9.803,2.086,20.905,0.996,31.8c-1.328,13.271-0.609,36.706-0.176,50.709
		c0.168,5.514,0.301,9.867,0.301,12.804c0,10.062-4.496,24.382-26.859,64.624l-0.289,0.521
		c-7.609,13.697-23.012,18.18-33.934,20.354c-12.387,2.47-24.629,2.736-29.32,2.736c-3.211,0-6.133-0.108-8.68-0.32
		c-3.445-0.288-9.715-0.604-16.355-0.94c-24.645-1.252-34.348-1.955-40.625-3.683c-2.145-0.185-8.566-0.541-26.059-0.541
		c-10.121,0-20.5,0.12-26.703,0.191c-2.816,0.031-4.758,0.055-5.887,0.059c-1.762,0.115-8.996,1.03-17.934,3.092
		c-13.355,3.08-17.449,5.688-17.488,5.712c-7.27,4.853-18.625,9.582-69.418,9.582c-21.301,0-42.441-0.895-48.211-1.539
		c-7.848-0.871-64.027-4.584-70.523-4.845c-6.492,0.058-33.816,0.979-41.488,1.997c-10.27,3.828-45.344,16.038-55.039,18.947
		c-7.469,2.239-18.746,2.502-46.727,2.632c-12.047,0.056-31.91,0.148-37.871,1.009c-3.648,1.217-7.707,1.102-12.383,1.102
		c-13.156,0-32.457-4.124-40.129-6.206c-26.039-7.061-32.777-12.146-36.926-17.05c-2.355-2.153-9.91-7.815-14.504-11.26
		c-9.473-7.1-15.473-11.646-19.324-15.496c-4.766-4.767-9.734-11.021-14.539-17.065c-2.48-3.126-4.824-6.076-6.766-8.339
		c-9.082-10.603-10.281-26.896-10.598-50.292c-3.027-1.256-6.398-2.527-9.285-3.527c-10.504,5.733-30.285,17.748-34.324,20.388
		l0.059-0.036c-2.082,1.408-19.223,13.685-34.277,24.498l-0.965,0.694l-1.031,0.6c-5.977,3.487-35.359,20.566-46.258,25.709
		c-2.84,2.302-8.859,9.462-11.504,12.607c-6.207,7.39-10.457,12.447-17.332,15.222c-1.43,0.729-4.902,2.634-7.504,4.062
		c-21.531,11.81-27.879,14.808-35.996,14.808h0.082c-0.918,0.01-4.996,0.17-8.59,0.312c-9.855,0.389-24.742,0.973-33.863,0.973
		c-5.441,0-8.539-0.195-11.266-0.714c-0.855-0.13-3.41-0.389-5.281-0.574c-17.441-1.758-29.59-3.425-38.309-10.159
		c-1.477-0.968-5.977-3.398-8.988-5.028c-12.277-6.639-20.754-11.413-26.465-17.127c-1.328-1.321-3.793-3.277-6.172-5.174
		c-5.811-4.61-12.398-9.838-17.496-16.974c-8.211-11.496-6.711-26.681-4.977-44.261c0.387-3.925,0.939-9.515,1.016-12.589
		c-2.645-5.697-8.805-16.515-11.344-20.021c-3.008-3.301-5.84-7.802-10.605-15.502c-1.059-1.707-2.547-4.106-3.773-6.03
		c-2.41,6.165-5.504,12.732-9.754,18.576c-10.434,14.344-25.551,17.601-34.836,19.104c-0.863,1.891-1.742,3.931-2.355,5.354
		c-3.098,7.208-5.66,13.169-10.59,17.81c-1.023,1.442-2.715,4.021-3.91,5.844c-7.02,10.688-12.09,18.418-20.348,22.545
		c-4.816,2.409-10.191,3.611-29.973,7.83c-10.418,2.221-23.391,4.981-36.34,8.107c-16.82,4.062-25.09,8.646-30.559,11.682
		c-2.035,1.127-4.105,2.272-6.367,3.271c-2.305,2.584-5.918,7.14-8.27,10.11c-4.57,5.765-8.887,11.212-12.992,15.313
		c-13.461,13.46-33.75,14.79-59.441,16.479c-3.672,0.238-7.469,0.488-11.391,0.776c-7.535,0.561-13.32,0.817-18.207,0.817
		c-15.77,0-24.059-2.804-35.531-6.683c-1.258-0.424-2.586-0.875-4.016-1.354c-9.148-3.052-16.598-3.754-23.801-4.432
		c-4.691-0.444-9.125-0.862-13.715-1.883c-2.121-0.473-4.561-1.08-7.148-1.729c-3.652-0.914-10.586-2.646-14.574-3.271
		c-2.281,0.597-4.668,0.898-7.121,0.898c-6.574,0-14.391-1.898-32.996-11.37c-5.402-2.75-10.414-5.477-13.609-7.247l-11.922-2.48
		l-19.359,9.321l-4.098,1.973l-4.527,0.403l-45.645,4.069l-68.711,7.015c-40.105,19.778-43.711,12.414-45.336,12.956
		c-2.883,0.953-5.945,1.433-9.152,1.433c-7.539,0-22.41,5.286-42.969-1.592l-3.551-1.188l-3.047-2.178l-15.602-11.146l-66.691-6.808
		l-49.586-4.248l-46.164,6.104l-35.918,15.666l-2.836,1.237l-3.047,0.509c-10.777,1.802-22.711,4.453-28.469,6.264h406.5h12.336
		h2385h51.125H15335V293.616C15326.938,296.706,15324.07,296.706,15321.266,296.706z"/>
	<path fill="#00FF00" d="M12379.07,800.469c0.414-0.146,0.904-0.308,1.426-0.472h-4.516
		C12376.971,800.13,12377.988,800.279,12379.07,800.469z"/>
	<path fill="#00FF00" d="M7283.704,747.797c0.004,0.001,0.009,0.003,0.015,0.005c0.02,0.005,0.041,0.016,0.06,0.021
		L7283.704,747.797z"/>
	<path fill="#00FF00" d="M12356.27,800c0.047,0,0.1-0.003,0.148-0.003h-0.355C12356.129,799.997,12356.203,800,12356.27,800z"/>
	<path fill="#00FF00" d="M6635.252,381.866L6731,370.5l101.25-5.25l126.453-15.993l-0.441-5.008l177.793-10.402l41.889-0.28
		l42.207-0.521l57.505-1.011L7306,336.5l39,8.5l107.5,8.5l119,13.667l42.333,4.333l144.667,21.333l9.667-51.667l24.666-11.833
		l-66.333-7.167l-55.333-3.667l-18.833-1.5l-57,1.167L7462.667,334.5l-61-2.667L7348.5,322c-4.34-1.581-9.773-3.466-12.333-4.667
		c-1.944-0.123-11.258-4.167-13.667-4.167c-2.23,0-7.721-2.831-10.5-2.667l-9,1l-6.5,1l-29,0.5H7244
		c-6.559,0.082-21.824-0.749-30.5,0c-9.523,0.819-17.893,0-25,0c-3.552,0-11.209,5.656-15.033,4.855
		c-3.457,1.255-9.271,1.292-13.467,3.145l-95.667,15l-66.745,0.887l-47.255-4.72l-33.667,15.167l-95.333,3l-29.5-5.833
		l-52.806,9.642l-11.74,1.436l-0.104,0.012l-34.021,8.394L6666,361.333l-21.001,5.079L6623.5,378l-65.333,26.5l-17.917,3.5l-11,9.75
		l11.5,11L6635.252,381.866z"/>
	<polygon fill="#00FF00" points="12257.629,237.496 12266.855,236.896 12327.5,236.5 12365,228.5 12425.25,197 12442.5,144.835 
		12431.557,144.687 12435.34,135.782 12431.66,134.218 12427.234,144.628 12415.354,144.468 12415.354,154.103 12412.75,169.5 
		12401.854,182.602 12380.855,193.102 12369.25,199.75 12360,206.5 12352.25,210.25 12331,218.75 12299.859,226.101 
		12275.861,226.101 12265.668,228.002 12257.336,232.668 12254.668,236.336 12254.668,236.337 12257.562,236.47 	"/>
</g>
</svg>
