<?xml version="1.0" encoding="utf-8"?>
<!-- Generator: Adobe Illustrator 16.0.0, SVG Export Plug-In . SVG Version: 6.00 Build 0)  -->
<!DOCTYPE svg PUBLIC "-//W3C//DTD SVG 1.1//EN" "http://www.w3.org/Graphics/SVG/1.1/DTD/svg11.dtd">
<svg version="1.1" id="Layer_3" xmlns="http://www.w3.org/2000/svg" xmlns:xlink="http://www.w3.org/1999/xlink" x="0px" y="0px"
	 width="15360px" height="800px" viewBox="0 0 15360 800" enable-background="new 0 0 15360 800" xml:space="preserve">
<g>
	<polygon fill="#00FF00" points="4038.084,0.606 4038.985,0.606 4038.298,0 	"/>
	<path fill="#00FF00" d="M51.802,160.958l1.198,3.73v3.918v39v6.924l-3.562,5.938l-5.928,9.879l-0.174,2.44
		c1.457,3.864,3.11,8.522,3.918,11.754c0.736,2.946,1.132,6.222,1.73,11.18c0.712,5.91,1.688,14.004,3.136,19.306
		c2.595,9.515,9.473,48.311,12.876,67.855l6.217-21.553L76,242.838v-42.232v-4.362l1.478-4.106l8.622-23.949l10.716-40.917
		l1.826-6.974l5.26-4.93l64-60l6.95-6.516l9.524-0.238l35.019-0.875l12.259-5.448l24.853-14.338l5.8-3.346H269h39.92l17.016-4.254
		l2.986-0.746H332h17h13.016l7.464,10.664l7,10l0.504,0.72l0.454,0.754l9,15l1.482,2.47l0.88,2.742l3.95,12.29v39.587h3.5V78.299
		l4.372-19.232l1.18-5.196L405,49.606l15-20l5.636-7.514l9.19-1.944l26-5.5l2.746-0.582l2.806,0.042l26.626,0.403l13.352-7.027
		l9.85-5.184l10.438,3.848l19,7l7.963,2.934l4.533,7.174c13.619,21.566,14.752,24.964,15.579,27.444
		c0.771,2.31,6.271,19.775,9.699,30.671l-0.584,87.129l4.667,14l-0.583-97.365l5.942-10.187l8.548-18.044l0.012-0.024l0.011-0.022
		l10-21l5.857-12.302l13.514-1.744l31-4l1.596-0.206H665h11.891l14.951-9.256l2.809-1.74l3.166-0.95
		C721.33-1.394,725.027,1.606,728,1.606c10.83,0,18.354,3.2,29.734,13.314c5.877,5.226,11.279,10.366,11.508,10.582l1.92,1.83
		l1.494,2.19l12.76,18.715v34.929L789.5,97.5l-0.584-50.784l0.084-0.11l6-8l14.046-18.73l15.403,10.046l9.833-13.52L845.214,1.37
		l17.544,6.14l20,7l2.354,0.824l2.146,1.27l18.939,11.236l11.994,3.028l13.049-3.09l2.398-0.568l2.472-0.088l12.438-0.444
		l29.476-4.754l6.416-1.034l6.105,2.222c9.6,3.49,20.328,7.367,23.582,8.508c2.688,0.562,10.338,1.85,18.214,3.106l7.558-3.526
		l20.506-10.74l8.956-4.69l9.696,2.852l17,5l10.438,3.07l4.866,9.734l2.435,4.87L1111,42l3,1l4.085,53.834l4.415,12.666
		l-0.915-75.343l6.522-5.979l5.011-4.594l6.646-1.424l14-3l6.104-1.308l6.002,1.716l28,8l10.062,2.876l5.018,9.19l12,22l0.936,1.72
		l0.66,1.844l3.482,9.75l0.51-0.372l6.364-0.776l14.371-1.796l12.648-3.3l0.938-1.312l1.462-1.464l6.5-6.5l1.609-1.61l1.874-1.292
		l14.5-10l1.725-1.19l1.896-0.884l22.5-10.5l6.719-3.136l7.341,1.034l35.5,5l8.697,1.226l6.021,6.396l8,8.5l5.366,5.7l1.155,7.744
		c1.357,9.113,5.021,33.541,5.895,38.839c0.808,3.377,5.037,14.091,6.746,17.379c2.842,4.671,12.167,21.511,14.646,30.026
		c0.358,1.058,1.213,3.286,2.402,6.309V181.5l13.084,16L1431,154l3-12l4-14l-1.389-13.191l5.709-35.207l0.022-0.14l0.022-0.142
		c5.027-28.914,9.321-34.64,11.63-37.716c3.609-4.814,12.35-13.19,19.042-19.37l9.708-8.96l12.872,2.97l26,6l5.548,1.28l4.448,3.558
		l19.133,15.306V54.5h3.5V42.358l2.656-4.175l8.055-12.654l14.956,1.15l13,1l4.223,0.324l3.882,1.698l16,7l6.135,2.684l3.972,5.39
		l9.168,12.442l9.043,2.856c5.772,0.703,12.185,1.417,14.106,1.535c2.183,0.033,7.962,0.286,24.19,1.022
		c8.618,0.393,20.383,0.926,22.488,0.974c7.39,0.023,12.062,2.085,35.017,15.358c10.43,6.032,20.309,11.956,20.723,12.204
		l3.924,2.356l2.836,3.59l11.665,14.776l15.075,7.817c27.604-4.002,35.123-4.864,37.998-5.05c4.216-0.525,23.615-3.835,41.705-7.034
		l39.828-19.914l17.797-10.805l5.244-3.184l6.121-0.394l39.604-2.556l20.964-4.315l2.807-0.578l2.861,0.072l30.708,0.771
		l1.384,0.034l1.366,0.188l29.669,4.046l51.635-6.832l2.627-0.348l2.643,0.212c23.009,1.833,48.929,3.789,52.888,3.921
		c5.873,0.053,61.073,2.061,78.041,2.683l0.412,0.016l0.412,0.028l86,6l4.362,0.306l4.002,1.768
		c11.734,5.186,67.466,29.833,79.812,35.586c8.605,2.092,45.943,7.717,77.117,11.94l0.896,0.122l0.888,0.186l79.334,16.666
		l2.58,0.542l2.409,1.068l58.076,25.739l161.213,61.667l4.478,1.712l3.524,3.246l20.354,18.745l31.534,11.624l9.522,3.512
		l4.383,9.158L2915,328.5l-1.857-7.088c-0.111-13.886,1.134-17.621,1.966-20.118c1.43-4.286,4.772-14.324,29.034-26.454l4.55-2.272
		l5.069-0.318l24-1.5l1.17-0.072l1.17,0.036l47.998,1.5l2.291,0.072l2.238,0.486c13.771,2.993,30.821,6.442,34.976,6.962
		c7.25,0.357,22.673,3.394,31.852,5.579c2.604-0.721,6.237-1.853,8.923-2.688c12.1-3.768,19.964-6.054,27.149-6.054
		c0.033,0,0.065,0,0.104,0c6.562-2.263,22.321-9.586,36.973-16.905l8.5-21.248l1.093-2.728l1.696-2.402l17.998-25.5l4.134-5.858
		l6.61-2.776l54.543-22.9l69.588-36.221l1.406-0.734l1.491-0.548l81.687-30.094l34.334-27.468l4.934-3.944l6.215-1.13l49.498-9
		l0.898-0.164l0.906-0.098c28.75-3.08,45.291-4.642,49.162-4.642c7.154-0.015,41.27-1.266,52.812-2.75
		c25.015-16.595,32.452-20.651,36.127-22.176c3.25-2.079,11.818-8.524,19.81-14.899l9.951-11.104
		c10.062-13.069,20.812-8.088,31.952-8.088c2.989,0,5.934,0.476,8.743,1.412c1.561,0.518,8.239,3.797,16.148,6.031
		c11.451-10.513,18.623-1.286,26.052-1.286c9.373,0,27.937,3.94,32.528,11.793c2.527,2.518,7.611,9.507,12.078,12.855l3.989-12.711
		L3818,22l1.271-5.719l0.158-15.675H0L51.802,160.958z"/>
	<path fill="#00FF00" d="M4820.918,0.606V0h-3.5v0.606L4036,1l2,8.5l9.137,2.135l5.303-3.18l6.177-0.344l9-0.5l12.019-0.668
		l8.02-3.987l12.5,14l2.717,3.042l0.502-0.403l6.289-1.11l8.125-1.434l5.963-1.233c0.018-0.046,0.029-0.091,0.045-0.137l3.203-9.558
		l8.941-4.682l11.5,6.967l4.926-3.93l5.555-0.24l11.5-0.5l5.539-0.242l5.123,3.482l20.5-4.467l4.229,1.752l3.332,3.138l7.15,6.732
		c2.566,1.764,5.373,3.572,6.527,4.199c4.528,2.039,4.105,9.797,8.682,14.668l5.584-5.055V97.5L4238,106l1.584-82.829l0.258-0.352
		l2.805-3.822l4.008-2.532l9.5-6l3.965-2.504l4.604-0.896l37.188-4.676l1.25-0.25h3.125l23.002,8.755
		c14.723-7.347,20.063-8.706,23.391-8.706c1.445,0,2.896,0.115,4.309,0.343c2.461,0.341,15.576,3.07,26.506,4.164l9.306,0.93
		l1.174,1.246L4404.5,14.5l12,0.5l5.5,0.5l8,24l0.586-37.479l10.336,1.083l13.15,1.526l7.424-3.024l7.797,1.856l10.5,2.5l3.76,0.894
		l3.951-3.918l14.358,2.729l5.517,3.308l3.229,5.558l13,22.344l13.233,8.584l14.34,8.901l1.869,1.16l1.635,1.468l9.396,8.425
		c8.58,1.687,17.074,3.303,19.922,3.754c2.445,0.195,7.029,0.982,21.381,4.147c19.574,4.318,21.162,5.112,23.793,6.428
		c2.795,1.39,14.703,7.047,21.619,10.128c1.293-0.232,2.75-0.498,4.293-0.785l8.746-13.995l14.092-26.483l1.117-2.102l1.498-1.854
		l11.5-14.25l4.004-4.962l5.893-2.438l14.5-6l4.217-1.746l4.562-0.142l16-0.5l0.389-0.012H4742c34.086,0,37.648,0.72,44.368,5.198
		c0.496,0.332,2.004,1.338,13.991,10.198l1.5,1.108l1.318,1.318c11.351,11.351,4.898,20.211,5.321,26.075l8.918,31.5h3.5l5.582-24.5
		l-1.543-24.658l0.797-4.108l2.092-3.624l7.5-13l0.752-1.302l0.899-1.204l7.5-10l5.916,6.927l9.168-12.427l14.332-0.083l7.334-0.333
		l8.584,0.25l12.781-0.91l3.549,1.478l2.938,2.476l28.5,24l4.518,3.8l2.338,5.42l10.656,24.707l7.604,14.729l1.873,3.628
		l0.621,4.036l6,39l0.39,2.528l-0.129,2.554c-0.271,5.261-0.435,11.13-0.414,14.271c1.209,4.104,2.692,10.5,4.938,21.426l0.252,1.23
		l0.129,1.248l15.486,151.326L5005.5,383.5l7,13l2.254,31l7.746,12.5l-4.246-101.876l1.939-44.375l-5.164-105.927l-0.027-0.61
		v-0.608v-27v-8.534l5.221-6.752l14.619-18.919L5045,97.454l7.665-32.576l2.048-8.702l7.104-5.43l17-13l3.166-2.422l3.765-1.316
		l17.424-6.099l4.019-2.483l0.635-0.392l0.653-0.354l19.334-10.418l5.556-2.992h6.308h30.118l19.796,0.186l21.612-3.93l0.535-0.098
		l0.537-0.074l34-4.668l3.06,9.362l3.069-9.444l54.666,6l3.641,0.398l3.374,1.428c14.737,6.236,22.776,8.525,27.429,13.973
		c1.849,0.93,4.562,2.159,8.131,3.676c14.488-10.639,20.931-14.531,27.021-15.706c3.333-1.229,10.992-1.223,17.07-3.857l1.5-0.65
		l1.569-0.45l11.542-3.297l11.729,6.824l5.444-4.212h6.147H5447h7.568l6.297,5.556l10-6.301l1.963,1.308l1.682,1.65l6.039,2.742
		H5489h2.578l2.521,0.526l31.399,12.288l5-6l0.5-12.959l1.5,0.5l12-1.375h17.375l14.437-0.375l9.188,0.125l20.985,0.168l4.595,2.376
		l3.272,4.006l4,1.708l13.22,3.172l15.742-0.492l19.918-4.24l14.271-3.165l4.098-1.824l4.479-0.286l31.301,0.326l10.5,0.25
		l7.896,3.836l10.107,5.963l10.707,3.568l36.992,11.3l50.897-4.768l25.115-8.372l12.554-6.753l4.983-3.948l6.271-1.086l31.975-0.615
		l10,0.5l10.75,0.5l22.883,9.693L5984,23.67v13.27v8.073l7.83,29.517l0.836,3.15v3.26v24.952l3.374,8.012l1.96,4.652v5.05v12.668
		v9.052l-5.796,6.954l-5.812,6.973l-3.984,5.976c3.607,7.341,4.781,10.102,5.312,11.529c0.231,0.515,0.666,1.419,1,2.113
		c2.024,4.245,3.795,7.944,4.861,11.766c1.122,1.933,3.123,5.13,4.889,7.776l2.64,3.962l1.002,4.662
		c1.588,7.404,3.59,16.475,4.164,18.709c0.506,1.694,1.916,6.973,7.679,30.604l0.713,2.92v3.004v11.94l4.717,14.154l0.492,1.476
		l0.308,1.528l3.194,15.987c1.289,2.247,2.41,4.219,3.393,5.959l2.579-10.834l0.149-0.636l0.187-0.628l6.666-22.666l0.022-0.086
		l0.026-0.086l9.601-31.796v-20.312v-2.622l0.543-2.564l4.666-22l5.326-25.298l1.213-5.756l3.649-4.612l12.666-16l7.508-9.482
		h12.095h14.435c2.675-1.088,4.812-1.951,6.521-2.636c0.562-0.86,1.131-1.767,1.617-2.574l0.985-1.642l1.235-1.486
		c8.99-10.79,12.136-12.884,14.015-14.136c1.942-1.296,4.381-2.922,23.08-9.934l0.94-0.354l0.969-0.276l21.877-6.251l2.613-5.428
		l4.709-20.009l1.891-8.03l6.295-5.328c21.01-17.78,23.484-18.604,27.584-19.97c1.564-0.524,18.195-6.338,28.311-9.876l2.068-0.726
		l2.164-0.352l61.332-10l3.734-0.61l3.75,0.524l62,8.668l3.403,0.476l3.147,1.38l4.271,1.868c0.229-0.375,0.459-0.751,0.686-1.121
		l3.318-5.458l5.529-3.198l10.666-6.166l5.807-3.356h6.705h6.871l7.844-3.008l4.819-1.848l5.157,0.212
		c1.367,0.054,5.541,0.2,8.383,0.2c0.268,0,0.492-0.001,0.677-0.003c1.304-0.189,2.634-0.285,3.985-0.285
		c3.699,0,7.871,0.668,16.527,2.644l0.484,0.111c3.402,0.699,5.129,1.511,15.566,6.425c0.334,0.158,0.688,0.324,1.038,0.489
		c4.101,0.685,11.782,1.935,17.858,2.911l2.018-2.662l6.703-2.552l22.334-8.5l4.297,2.366h4.596h11.994l10.756-1.708l4.5-0.375
		l5.25-0.5l9.375,0.5l9.125,1.125l8.293-0.025c3.018,2.638,5.332,1.177,7.09,3.805c1.49,1.606,4.438,4.642,7.129,7.336l1.354,1.35
		l1.131,1.542l4.438,6.055l2.348,0.375l6.027,0.964l0.658,0.488l1.086-3.616l1.535-5.116l3.492-4.044l6.334-7.332l5.836-2.756
		l8-0.526l5.082,0.5l2.5-0.25l1.918,1.25l16.666-0.875l6.959,0.125l11.623,1.125l13.502-1.5c9.857,7.744,14.709,1.112,15.66,2.057
		c1.133,1.064,6.254,5.734,11.556,10.545c1.354-0.845,2.483-1.533,3.457-2.101c3.483-3.035,10.299-8.128,20.396-9.39
		c4.371-0.549,15.246,1.908,18.166,1.494c9.031-1.841,13.625-2.56,16.271-2.841c2.004-0.566,5.24,1.635,7.248,0.986
		c4.515-1.456,8.229,0.169,10.75-0.25c2.604-0.65,7.123,0.824,13.125-0.875l3,0.625L6859,5.981l14.25,0.375l8.125-0.25h4.875
		c4.336,2.449,7.459-1.092,8.867-0.258c0.893,0.357,2.206,0.847,3.311,1.235c1.373-0.013,2.906-0.061,3.854-0.095l12.959-1.265
		L6928,7.481l8.557,2.75c0.467,0.538,0.99,1.129,1.482,1.678c0.238-0.058,0.479-0.118,0.719-0.178
		c0.529-0.148,1.66-0.485,2.967-0.881c0.625-0.815,1.268-1.663,1.854-2.458l9.047-0.785l11.625-1.125l9,1.125l1.125-0.125
		l17.875,1.5l5.625-1.75l4.635-1.149l6.502-0.627c3.01,0.784,7.435,1.947,9.2,2.453c1.246,0.35,7.384,1.868,12.343,3.07l0.537,0.13
		l1.37-1.218l12.326,2.58l28.668,6l1,0.21l0.98,0.29l17.891,5.301l27.139,7.669h24.479l20.271-7.944l2.722-1.066l2.896-0.41
		l40-5.666l1.58-0.224l1.602-0.022l50.668-0.666l4.229-0.056l4.01,1.336c16.555,5.519,23.586,8.055,26.893,9.359
		c4.873,0.986,19.639,3.15,26.211,4.111c3.979,0.583,6.529,0.958,8.279,1.231c4.164-0.332,14.324-1.628,24.562-3.063l6.562-7.594
		l4.728-5.472l6.916-2.106l15.334-1.666l5.133-1.562l5.321,0.682l26,0.332l0.806,0.104l0.795,0.154l40.278,7.842
		c19.078-3.089,31.521-4.764,37.067-4.993c5.467-1.499,19.854-3.358,31.438-7.509l2.455-0.88l2.582-0.354l34.105,1.144l9.875-0.125
		l5.75,0.375l24.225,7.046l0.617,0.334l0.598,0.37l16.289,10.024c6.797,3.315,14.676,7.088,17.494,8.345
		c3.082,0.873,11.854,3.306,19.764,5.488l0.726,0.2l0.708,0.242l12.039,4.111l13.955,2.713h8.001l2.868-2.582l2.757-2.48
		l3.354-1.574c20.026-9.388,25.324-9.388,28.828-9.388c1.021,0,2.033,0.058,3.037,0.173c0.694,0.024,2.496,0.066,6.584,0.066
		c9.625,0,23.603-0.234,23.74-0.236l4.467-0.076l4.213,1.476c12.545,4.391,18.729,6.705,22.181,8.187
		c6.435,1.559,26.444,5.378,33.625,6.349c3.24-0.339,6.795-0.339,10.938-0.339c7.342,0,16.896,0.209,22.938,0.362l19.258-8.714
		l2.721-1.23l2.934-0.556l26.5-5.024l2.311-0.438h2.32h26.439l8.188-1.03l3.836-0.482l3.8,0.698l12.25,2.25l7.332,1.346l2.937-7.462
		l10.342-3.93l9.748-3.702l10.283-1.674l2.845-1.292l3.074-0.552l12.5-2.25l2.194-0.396H8052h8.721l12.959-4.574l33.82-1.425l9,1.5
		l10.875-1.125l15.75,0.375l1-0.5l2.25,2l11.805,2.39l3.442,1.72l2.765,2.674l27.463,23.577c7.873,3.139,15.764,6.256,19.783,7.808
		c9.133,0.479,38.882,1.092,67.191,1.494l14.321-7.757l11.04-12.618l5.437-6.214l8.068-1.754l22.52-4.896l18.233-4.757l15.182-1.667
		l9.625-0.625l6.875-0.875l13.75,0.125l10.25-1.375l7.075,4.25l3.938,6.302l9.868,11.278l19.295,10.906l3.822,2.16l2.856,3.334
		c7.987,9.316,18.148,20.695,22.03,24.497c7.206,4.752,11.517,12.939,16.726,23.983c1.336,2.833,2.6,5.625,3.64,7.967l10.234,7.96
		l18.427,7.47l2.156-2.156c1.553-2.538,4.037-6.553,6.692-10.657c8.847-13.672,14.021-20.448,23.208-23.512
		c2.878-0.958,5.364-1.786,104.836-14.092l1.531-0.19H8672h22h1.383l1.377,0.152c22.432,2.494,28.029,5.292,30.42,6.488
		c3.41,1.704,8.564,4.282,28.867,28.168l1.805,2.124l1.295,2.468l11,21l0.018,0.032l0.016,0.034
		c5.455,10.491,12.188,23.202,13.809,25.946c2.367,3.565,4.59,7.549,13.383,46.018l0.629,2.75v2.82v26v20.059l10.176,10.775
		l2.703,2.862l-1.379,5.197l16,28l-2-18l4-10l-0.469-14.025l5.199-30.329l6.918-63.256l1.387-12.666l11.062-6.322l7-4l14.902-8.402
		l7,10l2,11l4.254,18.667h3.5V97.586l0.445-1.844l0.598-2.476l1.082-2.302l8-17l2.078-4.416l3.586-3.31l11.801-10.895l13.949-16.739
		l0.125,0.099l0.238-0.301l7.395-9.828l2.223-2.952l2.98-2.182l15.477-11.334l2.832-2.076l3.293-1.214l12.668,0.332l4.184-1.542
		h4.461H9011h4.236l3.998,1.396l28.666,5l3.166,1.104l2.764,1.9l20.639,14.19l21.922,12.973c11.16-3.563,15.123-3.563,17.275-3.563
		c3.572,0,18.387,0.417,24.932,0.606c6.605-1.13,14.008-2.509,17.648-3.328c2.984-1.688,8.467-4.7,18.949-10.315l2.328-1.248
		l2.539-0.734l30-8.666l5.859-1.692l5.98,1.196l26.668,5.332l2.301,0.46l2.176,0.88l28,11.334l5.002,2.026l3.723,3.906
		l13.178,13.837c18,18.026,20.188,22.87,21.637,28.679c0.566,2.252,1.902,8.758,2.867,13.534l2.125,3.983
		c0.734,0.783,1.426,1.498,1.898,1.962c2.672,1.907,7.176,5.336,10.766,8.096l7.246,5.574l1.941,8.936l3.332,15.334l0.57,2.624
		v2.684v9.332v18v3.854l-1.16,3.674l-2.84,8.994v5.32l0.729,1.577c7.303,10.333,10.838,16.319,12.334,21.56
		c1.291,2.58,4.174,7.808,6.852,12.402l13.307,22.561l20.498,18.283l23.281,15.728l6.201,4.192l2.881,6.91
		c7.016,16.846,5.469,16.646,5.754,17.507c0.477,1.427,0.188,9.025,1.666,13.667l0.666,63.333l5,16l9-64l-5.5-21.901V269.61v-2.098
		l0.352-2.068l7.918-46.856l7.941-60.878l0.355-2.726l0.941-2.584l13.332-36.668l1.787-4.912l3.604-3.784l12.68-13.314
		l11.408-13.944l2.881-3.522l3.941-2.282l12.668-7.334l8.27-4.788l9.355,1.95l16,3.334l9.566,1.992l5.68,7.95l2.82,21.422l-1-8l1,8
		l6,41l5-6l-2.914-54.426l4.521-10.176l7.916-18.47l4.754-11.096l11.646-3.176l22-6l9.213-2.512l8.545,4.271l22.666,11.332
		l5.621,2.81l3.623,5.134c9.854,13.958,14.545,20.909,16.963,24.915c3.125,3.185,10.961,10.493,17.371,16.285l4.248,3.838
		l2.156,5.304l1.49,3.67l6.289-5.87l0.426-0.396l0.441-0.378c14.57-12.382,18.561-14.856,19.91-15.667
		c2.668-1.644,24.066-15.851,38.414-25.417l3.352-2.234l3.885-1.07l26.668-7.334l2.361-0.648l2.445-0.18
		c12.789-0.936,20.176-1.447,24.523-1.728c5.414-3.158,15.848-9.625,24.93-15.401l9.238-8.085l6.258-5.474l8.289-0.638l43.336-3.332
		l0.955-0.074H9959h29.344l30.156,6.917l35.168-2.25l39.934,0.8c4.439,1.333,8.668-7.999,15.227-7.343
		c3.371,0.338,7.121,0.402,11.098,0.47c11.078,0.188,23.641,0.404,34.5,7.316c1.855,1.182,3.68,2.38,5.441,3.538
		c5.137,3.376,9.988,6.566,14.945,8.852c6.242,2.882,17.16,9.908,33.105,20.298c4.934,3.217,10.98,7.156,13.242,8.51
		c1.305,0.587,2.418,1.168,3.363,1.662c0.125,0.065,0.258,0.137,0.395,0.208c0.566-0.255,1.189-0.571,1.668-0.86l2.293-1.618
		l2.211-0.728l46.625-18.56l0.848-0.336l0.871-0.276l27.945-8.825l27.938-10.293l4.184-1.542h4.457h22.5h10.016l7.246,6.916
		l9.254,8.834h17.098l32.754-11.86l13.605-6.671l5.164-6.454l7.996-2.104l28.5,4.108l3.859-1.016l3.984,0.236l107.551-5.218
		l3.281,0.194l3.117,1.038l18.387,6.11l11.02,3.662l4.312,0.446l6.617,16.557l4.055,6.335l5.484,0.457l13.328,0.879l7.84,0.516
		l6.133,4.908l15.234,12.188l5.617-4.01l2.973-2.126l3.461-1.184l99.363-33.998c23.484-18.334,31.93-8,37.07-8
		c2.941,0,5.824,0.463,8.562,1.377V9.333c3.566,1.19,9.898-7.034,24.27,9.423l18.219,5.184H10929h17.492l18.975-8.206l19.105,0.146
		l5.514-2.94h6.25h20H11085h5.199l4.766,2.072l15.336-3.668l1.32,0.574l1.242,0.72l23.416,13.559l8.461,3.076h8.928h4.535
		l4.242,1.592l12.688,4.758l0.184-0.426l2.988-7.072l6.449-4.172l11.332-7.334l3.129-2.026l3.586-1.024l14-4l10.566,7.316
		l9.367-4.592c19.109,11.714,24.801,16.079,27.574,19.212c2.488,2.028,8.461,6.517,13.969,10.482l5.703,4.108l2.73,6.48l2.805,6.666
		l12.922,3.635l2.965,0.834l2.672,1.526l17.199,9.83l1.418-3.306l1.539-3.588l2.559-2.95l13.305-15.332l10.59-20.897l4.82-13.261
		l3.863-0.288l10.523-4.118l15.34-6l4.391-1.718h4.715h24h2.477l2.43,0.486l18.488,3.699c6.762-1.329,13.539-2.702,15.617-3.193
		c2.402-0.715,5.215,10.457,17.184,8.654c6.645-1,18.738-2.82,22.391-3.59c4.062-1.298,8.234-1.584,13.398-1.584
		c4.043,0,8.852,0.196,13.094,0.37c2.562,0.104,5.199,0.211,6.801,0.235c1.059-0.128,2.133-0.193,3.215-0.193
		c5.332,0,10.594,1.49,18.16,5.14c2.656,1.282,5.227-8.958,7.23-7.835l9.168,3.243l26.551,6.322l54.75-3.51l60.039-3.754
		l0.781-0.048h0.777h49.5h4.059l3.848,1.284l21.965,7.322l27.625-2.44h80.613l67.684-5.505l2.809-0.658h2.887h40.5h2.348
		l2.309,0.438l43.5,8.25l3.41,0.648l3.109,1.552l44.219,11.768h32.043l45.332-15.108l44.613-0.128l4.168-1.528h4.441l50.996-10.334
		h7.762l6.398,4.398l23.836,10.492l55.5,37.502l2.586,1.748l2.078,2.334l21,23.562l1.953,2.194l1.395,2.588l17.129,55.071l20,8
		l9.738-30.738l13.73-19.656l7.539-20.856c2.961-15.073,3.254-15.958,3.77-17.515l0.016-0.042l0.012-0.042
		c0.945-2.808,1.141-3.392,15.738-28.576l2.164-3.736l3.297-2.794l15.332-7.111l3.852-3.266l4.82-1.516l17.5-5.5l9.266-2.912
		l8.805,4.108l7.5,3.5l9.742,4.546l3.402,4.311c0.727,2.171,1.691,4.8,2.309,6.315c0.629,0.954,1.199,1.97,1.73,3.07l11.738,9.41
		l11,42l2-35l-5.141-11.514l0.168-0.496l0.191-0.488l4.5-11.5l2.547-6.506l5.551,1.649l8.5-6.5l4.941-3.78l6.137-1.022l18-3
		l0.363-0.06l0.363-0.05l17.5-2.39l1.684-0.23h1.699h20.5h2.586l2.531,0.528l21,4.39l0.977,0.206l0.961,0.282
		c13.316,3.917,18.262,5.52,20.34,6.252c1.301,0.303,4.098,0.861,6.023,1.246c6.203,1.237,10.309,2.056,13.711,3.29
		c1.637,0.281,4.262,0.644,6.809,0.967c0.273-0.192,0.543-0.382,0.797-0.567l3.77-2.71l4.504-1.18l72.664-7.392l5.422-1.418
		l5.512,1.032c12.164,2.282,33.219-5.458,37.926-4.784c4.527,0.646,12.09,2.536,25.457,11.446c4.305,2.871,11.836,2.351,16.922,7.92
		c4.301,3.11,18.082,10.986,30.039,17.404l35.754,5.363l21.961,3.294l-0.68,22.196l-1.914,62.415l5.621,25.75l31.969,28.604
		l8.68,7.768l-0.363,11.644l-2.598,83.19l3.117,85.751l3,40l7,5l2.746-58.062c0.426-14.057,1.582-25.375,2.113-35.914
		c2.195-43.645,23.016-106.896,27.297-119.503c2.156-13.301,13.914-85.872,16.055-100.102l1.133-38.623l0.387-13.16l11.074-7.128
		c32.809-21.118,39.332-23.292,41.789-24.112c2.613-0.87,5.336-1.312,8.098-1.312c10.918,0,18.238,5.977,24.371,14.363l2.215-4.626
		l6.152-12.848l14.191-1.26c19.035-1.69,64.09,0.271,71.355,0.271c1.398,0,2.684,0.084,3.93,0.254l0.066,0.01l0.066,0.01
		c1.238,0.158,7.012,0.498,16.715,0.498c7.738,0,12.77-0.224,14.438-0.381l49.41-9.883c14.305-2.862,33.258-3.084,38.727-3.084
		c12.414,0,16.109,0.89,19.082,1.88c3.723,1.242,11.336,4.728,14.844,6.396c11.582,5.516,15.828,2.654,18.93,5.753l19.066,19.068
		c2.789-3.236,7.352-8.315,15.016-16.488l0.727-0.774l0.789-0.71c3.949-3.556,10.301-3.459,12.047-5.206
		c5.492-5.494,12.957-8.28,22.189-8.28c6.766,0,14.918,1.414,20.867,2.448c1.102,0.19,2.535,0.439,3.32,0.562
		c10.977,0.667,18.457,1.878,27.051,10.038c0.152,0.146,0.316,0.302,0.488,0.465c3.094,0.603,7.352,1.342,10.527,1.893
		c11.398,1.977,17.25,3.073,21.609,4.554c1.434,0.152,5.035,0.43,12.152,0.43c9.746,0,21.703-0.536,31.211-1.402
		c18.363-1.668,45.061-7.39,52.199-9.174l36-3.109l1.387-0.346l1.414-0.186c3.383-0.446,33.508-4.346,50.145-4.346
		c2.242,0,4.211,0.066,6.016,0.204c12.652,0.974,43.484,6.038,50.008,8.21l0.633,0.21c12.801,4.184,25.797,3.388,31.82,15.438
		c2.078,4.15,7.223,16.521,9.328,21.621c2.625,5.127,9.988,20.637,11.227,35.483c0.227,2.715,0.664,5.351,1.156,7.639
		c4.172,0.679,8.617,1.287,10.668,1.446c10.004,0.248,18.406,5.608,31.691,20.097l3.754,4.096l1.664,5.298
		c1.055,3.346,4.578,14.784,5.77,21.496c0.582,3.281,1.98,32.478,3.879,40.889c1.355-1.743,3.928-20.628,5.141-22.105
		c0.449-0.545,0.965-1.166,1.453-1.768c0.871-4.947,2.633-10.571,5.027-17.98c1.074-3.323,2.668-8.264,3.105-10.235
		c0.199-3.129-0.061-12.824-0.223-18.703c-0.414-15.384-0.473-21.196,0.488-25.996c0.465-2.33,1.258-5.328,2.617-10.428
		c1.121-4.209,3.402-12.759,3.914-15.863c0.125-3.252,1.086-11.501,8.441-44.283l2.852-12.69l12.027,0.624l24.285-10l2.113-0.872
		l2.234-0.472c4.91-1.038,30.168,5.394,45.273,5.394c5.793,0,10.41,0.72,14.531,2.266c6.781,2.542,62.941,4.695,72.801,8.058
		c4.566,0.673,19.898,2.138,35.203,3.232c0.012,0,0.34,0.022,1.047,0.022c10.273,0,36.746-3.652,49.469-5.408
		c10.117-1.396,12.121-1.662,14.48-1.677c3.891-0.09,43.742,3.705,68.086,2.599l2.68-0.122l2.645,0.448l53,3.426l0.129,0.022
		l0.125,0.024c27.875,5.032,58.621,10.462,69.375,12.195c3.285-0.975,9.859-3.063,22.977-7.531c1.094-0.372,1.895-0.644,2.301-0.78
		c5.621-1.874,38.691-8.734,39.004-8.796c8.986-1.797,59.557-2.462,61.824-2.485c3.014-0.03,16.902,4.234,27.059,3.303
		c20.215-1.856,30.262-2.73,35.02-2.73c8.695,0,37.566,2.584,43.266,3.102l8.145-4.832l6.129,5.41
		c6.207,5.474,17.664,15.31,21.992,18.402c6.934,4.858,53.07,31.006,60.762,34.136c5.203,2.08,13.066,6.002,25.395,12.216
		c7.012,3.533,17.383,8.757,21.117,10.314c3.184,0.592,11.664,1.822,18.016,2.742c19.441,2.82,27.811,4.14,32.922,5.546
		c0.918,0.044,2.559,0.094,5.316,0.094c6.289,0,14.609-0.248,22.652-0.49c7.289-0.218,14.176-0.424,19.078-0.424
		c4.32,0,6.93,0.154,9.305,0.548c6.391,1.065,34.004,8.29,46.082,11.48c11.703,2.615,27.238,5.393,33.293,5.594
		c1.559-0.367,3.25-0.745,5.008-1.136c4.012-0.895,12.082-2.695,15.309-3.947c7.348-5.07,16.918-6.949,27.879-9.101
		c2.707-0.532,6.621-1.301,8.535-1.806c3.363-1.672,10.742-4.527,29.988-8.92c10.945-2.499,25.824-5.475,34.691-5.502
		c6.691-0.316,31.176-7.786,36.992-10.389c0.91-0.497,3.266-1.979,5.004-3.071c9.297-5.842,22.027-13.842,34.652-16.136
		c11.582-2.106,37.652-8.73,43.32-11.25c4.09-1.817,12.664-5.982,20.48-9.826L15360,0.606H4820.918z"/>
	<polygon fill="#00FF00" points="3905.8,11.899 3908.611,11.241 3911.5,11.241 3935.5,11.241 3941.457,11.241 3954.5,15 3966,28 
		3972.5,14.5 3975.5,11 3978,9 3983.137,8.635 3989.379,3.532 3996.656,3.722 4015.656,4.222 4020.129,4.34 4024.282,7.361 
		4034.282,11.361 4036,1 3898.949,0.606 	"/>
	<polygon fill="#00FF00" points="3830.619,7.98 3835.744,3.826 3840.006,1.502 3844.826,0.942 3869.158,11.077 3879.311,9.895 
		3887.382,3.198 3898.646,0.606 3820.102,0.606 	"/>
	<polygon fill="#00FF00" points="3819.431,0.606 3820.102,0.606 3819.822,0.41 	"/>
	<polygon fill="#00FF00" points="3898.646,0.606 3898.949,0.606 3898.912,0.545 	"/>
</g>
<g>
	<path fill="#00FF00" d="M7769.053,328.506c0.185-0.002,0.311-0.004,0.375-0.005
		C7769.357,328.502,7769.234,328.504,7769.053,328.506z"/>
	<path fill="#00FF00" d="M7767.279,328.53c0.316-0.004,0.608-0.008,0.865-0.015C7767.889,328.522,7767.602,328.526,7767.279,328.53z
		"/>
	<path fill="#00FF00" d="M7765.076,328.56c0.506-0.007,0.98-0.013,1.408-0.019C7766.059,328.547,7765.579,328.553,7765.076,328.56z"
		/>
	<path fill="#00FF00" d="M7793.104,331.004l-12.805,1.664l-17.42,1.237l-37.379-3.072l-84.322,3.833l-0.102-0.002l-23.765,9.538
		l-22.476,14.914l-1.473,0.421l-1.322,0.378l-1.354,0.229l-100,17l-2.08,0.354h-2.107h-130h-1.971l-97.504-21.548l-41.443,5.488
		l-74.377,17.89l0,0l-102.729,2.155l-45.479,2.599L6873.5,367.5l-12,1l-113,18l-85.082,24.955l-121.168,0.795l27.5,22.5l97.75-12.25
		l87-26l118-20l115,21l24,10l14,3l-3.01-5.815l15.209,13.908l6.09,5.569l1.578,8.1l3.984,20.458l8.401,12.003l7.533-22.448
		l6.183-21.479l16.03-16.295l4.209-8.866l0.812-8.479l24.383,1.79l28.229,2.069L7213.5,375.5l40-5l58.219,5.76l12.361,17.529
		l43.787,29.729l50.537,31.216l2.217,1.367l1.889,1.8l31.498,29.999l3.346,3.186l1.982,4.169l15,31.498l1.6,3.354l0.555,3.676
		l4.787,31.797l5.096,29.295l18.316,28.784l1.158,1.814l0.828,1.989l15.088,43.94L7489.5,738.5l59-7l100.911-74.682l-1.533-9.93
		l-0.291-1.896v-1.918v-45.122l-12.627-34.969l-23.14-2.183l-15.633-1.473l-5.461-14.722c-0.072-0.196-7.351-19.815-14.53-39.733
		c-15.935-44.191-15.935-46.294-15.935-51.373c0-4.822,0-9.81,18.655-51.75l0.828-1.86l3.755-2.391l17-13.333l10.333-12.333l11-13
		l17.667-7.333l81-4.667l4.334,2l6.443,3.637l20.521,8.01l2.705,15.731l2.521,12.979L7767.5,337.5l12.891-3.844l12.834-1.667
		L7793.104,331.004z"/>
</g>
</svg>
