<svg xmlns="http://www.w3.org/2000/svg" xmlns:xlink="http://www.w3.org/1999/xlink" height="800" width="15360" id="svg" style="display:none">
	<g id="top_bottom">
		<path id="top_x5F_bottom" fill="#00FF00" d="M7793.104,331.004l-12.805,1.664l-17.42,1.237l-37.379-3.072l-84.322,3.833
			l-0.102-0.002l-23.766,9.538l-22.476,14.914l-1.473,0.421l-1.322,0.378l-1.354,0.229l-100,17l-2.08,0.354h-2.106h-130h-1.972
			l-97.504-21.548l-41.442,5.487l-74.377,17.891l-102.729,2.155l-45.479,2.599L6873.5,367.5l-12,1l-113,18l-85.082,24.955
			l-121.168,0.795l27.5,22.5l97.75-12.25l87-26l118-20l115,21l24,10l14,3l-3.01-5.815l15.209,13.908l6.09,5.569l1.578,8.1
			l3.984,20.458l8.4,12.003l7.533-22.447l6.183-21.479l16.03-16.295l4.209-8.866l0.812-8.479l24.383,1.79l28.229,2.068L7213.5,375.5
			l40-5l58.219,5.76l12.361,17.529l43.787,29.729l50.537,31.217l2.217,1.366l1.889,1.801l31.498,29.999l3.346,3.186l1.982,4.169
			l15,31.498l1.6,3.354l0.556,3.676l4.786,31.797l5.097,29.295l18.315,28.784l1.158,1.813l0.828,1.989l15.088,43.94L7489.5,738.5
			l59-7l100.911-74.682l-1.533-9.931l-0.291-1.896v-1.918v-45.122l-12.627-34.969l-23.14-2.184l-15.633-1.473l-5.461-14.722
			c-0.072-0.196-7.352-19.815-14.53-39.733c-15.936-44.191-15.936-46.294-15.936-51.373c0-4.822,0-9.81,18.655-51.75l0.828-1.86
			l3.755-2.391l17-13.333l10.333-12.333l11-13l17.667-7.333l81-4.667l4.334,2l6.443,3.637l20.521,8.01l2.705,15.731l2.521,12.979
			L7767.5,337.5l12.891-3.844l12.834-1.667L7793.104,331.004z"/>
	</g>
	<g id="top_top">
		<path id="top_x5F_top" fill="#00FF00" d="M4820.918,0.606V0h-3.5v0.606l-779.72,0.393l-137.075-0.388l0.024-0.005h-81.218h-1.21H0
			l51.802,160.352l1.198,3.73v3.918v39v6.924l-3.562,5.938l-5.928,9.879l-0.174,2.44c1.457,3.864,3.11,8.522,3.918,11.754
			c0.736,2.946,1.132,6.222,1.73,11.18c0.712,5.91,1.688,14.004,3.136,19.306c2.595,9.515,9.473,48.311,12.876,67.855l6.217-21.553
			L76,242.838v-42.232v-4.362l1.478-4.106l8.622-23.949l10.716-40.917l1.826-6.974l5.26-4.93l64-60l6.95-6.516l9.524-0.238
			l35.019-0.875l12.259-5.448l24.853-14.338l5.8-3.346H269h39.92l17.016-4.254l2.986-0.746H332h17h13.016l7.464,10.664l7,10
			l0.504,0.72l0.454,0.754l9,15l1.482,2.47l0.88,2.742l3.95,12.29v39.587h3.5V78.299l4.372-19.232l1.18-5.196L405,49.606l15-20
			l5.636-7.514l9.19-1.944l26-5.5l2.746-0.582l2.806,0.042l26.626,0.403l13.352-7.027l9.851-5.184l10.438,3.848l19,7l7.963,2.934
			l4.532,7.174c13.619,21.566,14.753,24.964,15.579,27.444c0.771,2.31,6.271,19.775,9.699,30.671l-0.584,87.129l4.667,14
			l-0.583-97.365l5.942-10.187l8.548-18.044l0.012-0.024l0.011-0.022l10-21l5.857-12.302l13.514-1.744l31-4l1.597-0.206H665h11.891
			l14.951-9.256l2.81-1.74l3.166-0.95C721.33-1.394,725.027,1.606,728,1.606c10.83,0,18.354,3.2,29.734,13.314
			c5.877,5.226,11.278,10.366,11.508,10.582l1.92,1.83l1.494,2.19l12.76,18.715v34.929L789.5,97.5l-0.584-50.784l0.084-0.11l6-8
			l14.046-18.73l15.403,10.046l9.833-13.52L845.214,1.37l17.544,6.14l20,7l2.354,0.824l2.146,1.27l18.939,11.236l11.994,3.028
			l13.049-3.09l2.397-0.568l2.473-0.088l12.438-0.444l29.476-4.754l6.416-1.034l6.105,2.222c9.6,3.49,20.328,7.367,23.582,8.508
			c2.688,0.562,10.338,1.85,18.214,3.106l7.559-3.526l20.506-10.74l8.956-4.69l9.695,2.852l17,5l10.438,3.07l4.866,9.734l2.435,4.87
			L1111,42l3,1l4.085,53.834l4.415,12.666l-0.915-75.343l6.522-5.979l5.011-4.594l6.646-1.424l14-3l6.104-1.308l6.002,1.716l28,8
			l10.062,2.876l5.019,9.19l12,22l0.936,1.72l0.66,1.844l3.482,9.75l0.51-0.372l6.364-0.776l14.371-1.796l12.647-3.3l0.938-1.312
			l1.462-1.464l6.5-6.5l1.608-1.61l1.874-1.292l14.5-10l1.726-1.19l1.896-0.884l22.5-10.5l6.72-3.136l7.341,1.034l35.5,5l8.696,1.226
			l6.021,6.396l8,8.5l5.366,5.7l1.154,7.744c1.357,9.113,5.021,33.541,5.896,38.839c0.808,3.377,5.037,14.091,6.746,17.379
			c2.842,4.671,12.167,21.511,14.646,30.026c0.358,1.058,1.213,3.286,2.402,6.309V181.5l13.084,16L1431,154l3-12l4-14l-1.389-13.191
			l5.709-35.207l0.021-0.14l0.022-0.142c5.026-28.914,9.321-34.64,11.63-37.716c3.609-4.814,12.35-13.19,19.042-19.37l9.708-8.96
			l12.872,2.97l26,6l5.548,1.28l4.448,3.558l19.133,15.306V54.5h3.5V42.358l2.655-4.175l8.056-12.654l14.956,1.15l13,1l4.223,0.324
			l3.883,1.698l16,7l6.135,2.684l3.972,5.39l9.168,12.442l9.043,2.856c5.772,0.703,12.185,1.417,14.106,1.535
			c2.183,0.033,7.961,0.286,24.189,1.022c8.618,0.393,20.383,0.926,22.488,0.974c7.39,0.023,12.062,2.085,35.017,15.358
			c10.431,6.032,20.31,11.956,20.724,12.204l3.924,2.356l2.836,3.59l11.665,14.776l15.075,7.817
			c27.604-4.002,35.123-4.864,37.998-5.05c4.216-0.525,23.615-3.835,41.705-7.034l39.828-19.914l17.797-10.805l5.244-3.184
			l6.12-0.394l39.604-2.556l20.964-4.315l2.807-0.578l2.861,0.072l30.708,0.771l1.384,0.034l1.366,0.188l29.669,4.046l51.635-6.832
			l2.627-0.348l2.644,0.212c23.009,1.833,48.929,3.789,52.888,3.921c5.873,0.053,61.073,2.061,78.041,2.683l0.412,0.016l0.412,0.028
			l86,6l4.362,0.306l4.002,1.768c11.733,5.186,67.466,29.833,79.812,35.586c8.604,2.092,45.942,7.717,77.117,11.94l0.896,0.122
			l0.889,0.186l79.334,16.666l2.58,0.542l2.408,1.068l58.076,25.739l161.213,61.667l4.479,1.712l3.523,3.246l20.354,18.745
			l31.534,11.624l9.521,3.512l4.383,9.158L2915,328.5l-1.857-7.088c-0.11-13.886,1.135-17.621,1.967-20.118
			c1.43-4.286,4.771-14.324,29.033-26.454l4.551-2.272l5.068-0.318l24-1.5l1.17-0.072l1.17,0.036l47.998,1.5l2.291,0.072l2.238,0.486
			c13.771,2.993,30.821,6.442,34.977,6.962c7.25,0.357,22.673,3.394,31.852,5.579c2.604-0.721,6.237-1.853,8.923-2.688
			c12.101-3.768,19.964-6.054,27.149-6.054h0.104c6.562-2.263,22.321-9.586,36.973-16.905l8.5-21.248l1.094-2.728l1.695-2.402
			l17.998-25.5l4.135-5.858l6.609-2.776l54.543-22.9l69.588-36.221l1.406-0.734l1.491-0.548l81.687-30.094l34.334-27.468l4.935-3.944
			l6.215-1.13l49.498-9l0.897-0.164l0.906-0.098c28.75-3.08,45.291-4.642,49.162-4.642c7.154-0.015,41.271-1.266,52.812-2.75
			c25.015-16.595,32.451-20.651,36.127-22.176c3.25-2.079,11.817-8.524,19.81-14.899l9.951-11.104
			c10.062-13.069,20.812-8.088,31.952-8.088c2.988,0,5.934,0.476,8.743,1.412c1.561,0.518,8.239,3.797,16.147,6.031
			c11.451-10.513,18.623-1.286,26.053-1.286c9.373,0,27.937,3.94,32.527,11.793c2.527,2.518,7.611,9.507,12.078,12.855l3.989-12.711
			L3818,22l1.271-5.719l0.15-15.023c3.353,1.801,12.571,6.722,12.571,6.722l5.021-4.154l4.176-2.324l4.723-0.56l23.841,10.135
			l9.947-1.182l7.908-6.697l11.522-2.291l6.668,10.992l2.812-0.658h2.889h24h5.957L3954.5,15l11.5,13l6.5-13.5l3-3.5l2.5-2
			l5.137-0.365l6.242-5.103l7.277,0.19l19,0.5l4.473,0.118l4.153,3.021l10,4l2.51-6.995L4038,9.5l9.137,2.135l5.303-3.18l6.178-0.344
			l9-0.5l12.019-0.668l8.021-3.987l12.5,14l2.717,3.042l0.502-0.403l6.289-1.11l8.125-1.434l5.963-1.233
			c0.018-0.046,0.029-0.091,0.045-0.137L4127,6.123l8.941-4.682l11.5,6.967l4.926-3.93l5.555-0.24l11.5-0.5l5.539-0.242l5.123,3.482
			l20.5-4.467l4.229,1.752l3.332,3.138l7.15,6.732c2.566,1.764,5.373,3.572,6.527,4.199c4.527,2.039,4.104,9.797,8.682,14.668
			l5.584-5.055V97.5L4238,106l1.584-82.829l0.258-0.352l2.805-3.822l4.008-2.532l9.5-6l3.966-2.504l4.604-0.896l37.188-4.676
			l1.25-0.25h3.125l23.002,8.755c14.723-7.347,20.062-8.706,23.391-8.706c1.445,0,2.896,0.115,4.309,0.343
			c2.462,0.341,15.576,3.07,26.507,4.164l9.306,0.93l1.174,1.246L4404.5,14.5l12,0.5l5.5,0.5l8,24l0.586-37.479l10.336,1.083
			l13.15,1.526l7.424-3.024l7.797,1.856l10.5,2.5l3.76,0.894l3.951-3.918l14.357,2.729l5.518,3.308l3.229,5.558l13,22.344
			l13.233,8.584l14.341,8.901l1.868,1.16l1.636,1.468l9.396,8.425c8.58,1.687,17.073,3.303,19.922,3.754
			c2.445,0.195,7.029,0.982,21.381,4.147c19.574,4.318,21.162,5.112,23.793,6.428c2.796,1.39,14.703,7.047,21.619,10.128
			c1.293-0.232,2.75-0.498,4.293-0.785l8.746-13.995l14.092-26.483l1.117-2.102l1.498-1.854l11.5-14.25l4.004-4.962l5.894-2.438
			l14.5-6l4.217-1.746l4.562-0.142l16-0.5l0.39-0.012H4742c34.086,0,37.648,0.72,44.368,5.198c0.495,0.332,2.004,1.338,13.991,10.198
			l1.5,1.108l1.317,1.318c11.351,11.351,4.898,20.211,5.321,26.075l8.918,31.5h3.5l5.582-24.5l-1.543-24.658l0.797-4.108l2.092-3.624
			l7.5-13l0.752-1.302l0.899-1.204l7.5-10l5.916,6.927l9.168-12.427l14.332-0.083l7.334-0.333l8.584,0.25l12.78-0.91l3.55,1.478
			l2.938,2.476l28.5,24l4.518,3.8l2.338,5.42l10.656,24.707l7.604,14.729l1.873,3.628l0.621,4.036l6,39l0.391,2.528l-0.13,2.554
			c-0.271,5.261-0.435,11.13-0.413,14.271c1.209,4.104,2.691,10.5,4.938,21.426l0.252,1.23l0.129,1.248l15.486,151.326L5005.5,383.5
			l7,13l2.254,31l7.746,12.5l-4.246-101.876l1.939-44.375l-5.164-105.927l-0.027-0.61v-0.608v-27v-8.534l5.221-6.752l14.619-18.919
			L5045,97.454l7.665-32.576l2.048-8.702l7.104-5.43l17-13l3.166-2.422l3.766-1.316l17.424-6.099l4.02-2.483l0.635-0.392l0.652-0.354
			l19.334-10.418l5.557-2.992h6.308h30.118l19.796,0.186l21.612-3.93l0.535-0.098l0.537-0.074l34-4.668l3.06,9.362l3.069-9.444
			l54.666,6l3.641,0.398l3.374,1.428c14.737,6.236,22.776,8.525,27.429,13.973c1.85,0.93,4.562,2.159,8.131,3.676
			c14.488-10.639,20.932-14.531,27.021-15.706c3.333-1.229,10.992-1.223,17.07-3.857l1.5-0.65l1.568-0.45l11.543-3.297l11.729,6.824
			l5.443-4.212h6.147H5447h7.568l6.297,5.556l10-6.301l1.963,1.308l1.682,1.65l6.039,2.742H5489h2.578l2.521,0.526l31.398,12.288l5-6
			l0.5-12.959l1.5,0.5l12-1.375h17.375l14.438-0.375l9.188,0.125l20.984,0.168l4.596,2.376l3.271,4.006l4,1.708l13.221,3.172
			l15.742-0.492l19.918-4.24l14.271-3.165l4.099-1.824l4.479-0.286l31.301,0.326l10.5,0.25l7.896,3.836l10.106,5.963l10.707,3.568
			l36.992,11.3l50.897-4.768l25.114-8.372l12.554-6.753l4.983-3.948l6.271-1.086l31.976-0.615l10,0.5l10.75,0.5l22.883,9.693
			L5984,23.67v13.27v8.073l7.83,29.517l0.836,3.15v3.26v24.952l3.374,8.012l1.96,4.652v5.05v12.668v9.052l-5.796,6.954l-5.812,6.973
			l-3.984,5.976c3.607,7.341,4.781,10.102,5.312,11.529c0.23,0.515,0.666,1.419,1,2.113c2.023,4.245,3.795,7.944,4.86,11.766
			c1.122,1.933,3.123,5.13,4.89,7.776l2.639,3.962l1.002,4.662c1.589,7.404,3.591,16.475,4.164,18.709
			c0.507,1.694,1.916,6.973,7.68,30.604l0.713,2.92v3.004v11.94l4.717,14.154l0.492,1.476l0.309,1.528l3.193,15.987
			c1.289,2.246,2.41,4.219,3.393,5.959l2.58-10.834l0.148-0.636l0.188-0.628l6.666-22.666l0.021-0.086l0.025-0.086l9.602-31.796
			v-20.312v-2.622l0.543-2.564l4.666-22l5.326-25.298l1.213-5.756l3.648-4.612l12.666-16l7.509-9.482h12.095h14.436
			c2.674-1.088,4.812-1.951,6.521-2.636c0.562-0.86,1.131-1.767,1.617-2.574l0.985-1.642l1.234-1.486
			c8.99-10.79,12.137-12.884,14.016-14.136c1.941-1.296,4.381-2.922,23.08-9.934l0.939-0.354l0.969-0.276l21.877-6.251l2.613-5.428
			l4.709-20.009l1.891-8.03l6.295-5.328c21.01-17.78,23.484-18.604,27.584-19.97c1.564-0.524,18.195-6.338,28.312-9.876l2.067-0.726
			l2.164-0.352l61.332-10l3.734-0.61l3.75,0.524l62,8.668l3.402,0.476l3.147,1.38l4.271,1.868c0.229-0.375,0.46-0.751,0.687-1.121
			l3.318-5.458l5.528-3.198l10.666-6.166l5.808-3.356h6.705h6.87l7.845-3.008l4.819-1.848l5.156,0.212
			c1.367,0.054,5.541,0.2,8.383,0.2c0.269,0,0.492-0.001,0.678-0.003c1.304-0.189,2.634-0.285,3.984-0.285
			c3.699,0,7.871,0.668,16.527,2.644l0.484,0.111c3.402,0.699,5.129,1.511,15.566,6.425c0.334,0.158,0.688,0.324,1.037,0.489
			c4.102,0.685,11.782,1.935,17.858,2.911l2.018-2.662l6.703-2.552l22.334-8.5l4.298,2.366h4.596h11.994l10.756-1.708l4.5-0.375
			l5.25-0.5l9.375,0.5l9.125,1.125l8.293-0.025c3.018,2.638,5.332,1.177,7.09,3.805c1.49,1.606,4.438,4.642,7.129,7.336l1.354,1.35
			l1.131,1.542l4.438,6.055l2.349,0.375l6.026,0.964l0.658,0.488l1.086-3.616l1.534-5.116l3.492-4.044l6.334-7.332l5.836-2.756
			l8-0.526l5.082,0.5l2.5-0.25l1.918,1.25l16.666-0.875l6.959,0.125l11.623,1.125l13.502-1.5c9.857,7.744,14.709,1.112,15.66,2.057
			c1.133,1.064,6.254,5.734,11.557,10.545c1.354-0.845,2.482-1.533,3.457-2.101c3.482-3.035,10.299-8.128,20.396-9.39
			c4.371-0.549,15.246,1.908,18.166,1.494c9.031-1.841,13.625-2.56,16.271-2.841c2.005-0.566,5.24,1.635,7.248,0.986
			c4.516-1.456,8.229,0.169,10.75-0.25c2.604-0.65,7.123,0.824,13.125-0.875l3,0.625L6859,5.981l14.25,0.375l8.125-0.25h4.875
			c4.336,2.449,7.459-1.092,8.867-0.258c0.893,0.357,2.206,0.847,3.311,1.235c1.373-0.013,2.906-0.061,3.854-0.095l12.959-1.265
			L6928,7.481l8.557,2.75c0.467,0.538,0.99,1.129,1.482,1.678c0.238-0.058,0.479-0.118,0.719-0.178
			c0.529-0.148,1.66-0.485,2.967-0.881c0.625-0.815,1.269-1.663,1.854-2.458l9.047-0.785l11.625-1.125l9,1.125l1.125-0.125
			l17.875,1.5l5.625-1.75l4.636-1.149l6.502-0.627c3.01,0.784,7.435,1.947,9.199,2.453c1.246,0.35,7.385,1.868,12.344,3.07
			l0.536,0.13l1.37-1.218l12.326,2.58l28.668,6l1,0.21l0.98,0.29l17.891,5.301l27.139,7.669h24.479l20.271-7.944l2.723-1.066
			l2.896-0.41l40-5.666l1.58-0.224l1.603-0.022l50.668-0.666l4.229-0.056l4.01,1.336c16.555,5.519,23.586,8.055,26.893,9.359
			c4.873,0.986,19.64,3.15,26.211,4.111c3.979,0.583,6.529,0.958,8.279,1.231c4.164-0.332,14.324-1.628,24.562-3.063l6.562-7.594
			l4.728-5.472l6.916-2.106l15.334-1.666l5.133-1.562l5.321,0.682l26,0.332l0.806,0.104l0.795,0.154l40.278,7.842
			c19.078-3.089,31.521-4.764,37.066-4.993c5.467-1.499,19.854-3.358,31.438-7.509l2.455-0.88l2.582-0.354l34.104,1.144l9.875-0.125
			l5.75,0.375l24.225,7.046l0.617,0.334l0.599,0.37l16.289,10.024c6.797,3.315,14.676,7.088,17.493,8.345
			c3.082,0.873,11.854,3.306,19.765,5.488l0.726,0.2l0.709,0.242l12.039,4.111l13.955,2.713h8l2.868-2.582l2.757-2.48l3.354-1.574
			c20.026-9.388,25.323-9.388,28.827-9.388c1.021,0,2.033,0.058,3.037,0.173c0.694,0.024,2.496,0.066,6.584,0.066
			c9.625,0,23.604-0.234,23.74-0.236l4.467-0.076l4.213,1.476c12.546,4.391,18.729,6.705,22.182,8.187
			c6.436,1.559,26.443,5.378,33.625,6.349c3.24-0.339,6.795-0.339,10.938-0.339c7.342,0,16.896,0.209,22.938,0.362l19.258-8.714
			l2.722-1.23l2.934-0.556l26.5-5.024l2.311-0.438h2.32h26.439l8.188-1.03l3.836-0.482l3.801,0.698l12.25,2.25l7.332,1.346
			l2.937-7.462l10.342-3.93l9.748-3.702l10.283-1.674l2.845-1.292l3.074-0.552l12.5-2.25l2.193-0.396H8052h8.721l12.959-4.574
			l33.82-1.425l9,1.5l10.875-1.125l15.75,0.375l1-0.5l2.25,2l11.805,2.39l3.442,1.72l2.765,2.674l27.463,23.577
			c7.873,3.139,15.765,6.256,19.783,7.808c9.133,0.479,38.882,1.092,67.191,1.494l14.32-7.757l11.04-12.618l5.438-6.214l8.068-1.754
			l22.52-4.896l18.233-4.757l15.182-1.667l9.625-0.625l6.875-0.875l13.75,0.125l10.25-1.375l7.075,4.25l3.938,6.302l9.868,11.278
			l19.295,10.906l3.822,2.16l2.855,3.334c7.987,9.316,18.148,20.695,22.03,24.497c7.206,4.752,11.518,12.939,16.727,23.983
			c1.336,2.833,2.6,5.625,3.64,7.967l10.234,7.96l18.427,7.47l2.156-2.156c1.553-2.538,4.036-6.553,6.691-10.657
			c8.848-13.672,14.021-20.448,23.208-23.512c2.878-0.958,5.364-1.786,104.836-14.092l1.531-0.19H8672h22h1.383l1.377,0.152
			c22.432,2.494,28.029,5.292,30.42,6.488c3.41,1.704,8.564,4.282,28.867,28.168l1.805,2.124l1.297,2.468l11,21l0.016,0.032
			l0.016,0.034c5.457,10.491,12.189,23.202,13.811,25.946c2.367,3.565,4.59,7.549,13.383,46.018l0.629,2.75v2.82v26v20.059
			l10.176,10.775l2.703,2.862l-1.379,5.197l16,28l-2-18l4-10l-0.469-14.025l5.199-30.329l6.918-63.256l1.387-12.666l11.061-6.322l7-4
			l14.902-8.402l7,10l2,11l4.254,18.667h3.5V97.586l0.445-1.844l0.598-2.476l1.082-2.302l8-17l2.078-4.416l3.586-3.31l11.801-10.895
			l13.949-16.739l0.125,0.099l0.238-0.301l7.395-9.828l2.225-2.952l2.979-2.182l15.479-11.334l2.832-2.076l3.293-1.214l12.668,0.332
			l4.184-1.542h4.461H9011h4.236l3.998,1.396l28.666,5l3.166,1.104l2.764,1.9l20.639,14.19l21.922,12.973
			c11.16-3.563,15.123-3.563,17.275-3.563c3.572,0,18.387,0.417,24.932,0.606c6.605-1.13,14.008-2.509,17.648-3.328
			c2.984-1.688,8.467-4.7,18.949-10.315l2.328-1.248l2.539-0.734l30-8.666l5.859-1.692l5.98,1.196l26.668,5.332l2.301,0.46
			l2.176,0.88l28,11.334l5,2.026l3.725,3.906l13.178,13.837c18,18.026,20.188,22.87,21.637,28.679
			c0.566,2.252,1.902,8.758,2.867,13.534l2.125,3.983c0.734,0.783,1.426,1.498,1.898,1.962c2.672,1.907,7.176,5.336,10.766,8.096
			l7.246,5.574l1.941,8.936l3.332,15.334l0.57,2.624v2.684v9.332v18v3.854l-1.16,3.674l-2.84,8.994v5.32l0.727,1.577
			c7.305,10.333,10.84,16.319,12.336,21.56c1.289,2.58,4.174,7.808,6.852,12.402l13.307,22.561l20.498,18.283l23.281,15.728
			l6.201,4.192l2.881,6.91c7.016,16.846,5.469,16.646,5.754,17.507c0.477,1.427,0.188,9.025,1.666,13.667l0.666,63.333l5,16l9-64
			l-5.5-21.901V269.61v-2.098l0.352-2.068l7.918-46.856l7.941-60.878l0.355-2.726l0.941-2.584l13.332-36.668l1.785-4.912l3.605-3.784
			l12.68-13.314l11.408-13.944l2.881-3.522l3.941-2.282l12.668-7.334l8.27-4.788l9.355,1.95l16,3.334l9.566,1.992l5.68,7.95
			l2.82,21.422l6,41l5-6l-2.914-54.426l4.52-10.176l7.918-18.47l4.754-11.096l11.645-3.176l22-6l9.213-2.512l8.545,4.271
			l22.666,11.332l5.621,2.81l3.623,5.134c9.855,13.958,14.545,20.909,16.963,24.915c3.125,3.185,10.961,10.493,17.371,16.285
			l4.248,3.838l2.156,5.304l1.49,3.67l6.289-5.87l0.426-0.396l0.439-0.378c14.57-12.382,18.562-14.856,19.91-15.667
			c2.668-1.644,24.066-15.851,38.414-25.417l3.354-2.234l3.885-1.07l26.668-7.334l2.361-0.648l2.443-0.18
			c12.789-0.936,20.176-1.447,24.523-1.728c5.414-3.158,15.848-9.625,24.93-15.401l9.238-8.085l6.258-5.474l8.289-0.638l43.336-3.332
			l0.957-0.074H9959h29.344l30.156,6.917l35.168-2.25l39.934,0.8c4.439,1.333,8.668-7.999,15.227-7.343
			c3.371,0.338,7.121,0.402,11.098,0.47c11.078,0.188,23.643,0.404,34.5,7.316c1.855,1.182,3.682,2.38,5.441,3.538
			c5.137,3.376,9.988,6.566,14.945,8.852c6.242,2.882,17.16,9.908,33.105,20.298c4.934,3.217,10.98,7.156,13.242,8.51
			c1.305,0.587,2.418,1.168,3.363,1.662c0.125,0.065,0.258,0.137,0.395,0.208c0.566-0.255,1.189-0.571,1.668-0.86l2.293-1.618
			l2.211-0.728l46.625-18.56l0.848-0.336l0.871-0.276l27.945-8.825l27.938-10.293l4.184-1.542h4.457h22.5h10.016l7.246,6.916
			l9.254,8.834h17.1l32.754-11.86l13.604-6.671l5.164-6.454l7.996-2.104l28.5,4.108l3.859-1.016l3.984,0.236l107.551-5.218
			l3.281,0.194l3.117,1.038l18.387,6.11l11.02,3.662l4.312,0.446l6.617,16.557l4.055,6.335l5.484,0.457l13.328,0.879l7.84,0.516
			l6.133,4.908l15.234,12.188l5.617-4.01l2.973-2.126l3.461-1.184l99.363-33.998c23.484-18.334,31.93-8,37.07-8
			c2.941,0,5.824,0.463,8.562,1.377V9.333c3.566,1.19,9.898-7.034,24.27,9.423l18.219,5.184H10929h17.492l18.975-8.206l19.105,0.146
			l5.514-2.94h6.25h20H11085h5.199l4.766,2.072l15.336-3.668l1.32,0.574l1.242,0.72l23.416,13.559l8.461,3.076h8.928h4.535
			l4.242,1.592l12.688,4.758l0.184-0.426l2.988-7.072l6.449-4.172l11.332-7.334l3.129-2.026l3.586-1.024l14-4l10.566,7.316
			l9.367-4.592c19.109,11.714,24.801,16.079,27.574,19.212c2.488,2.028,8.461,6.517,13.969,10.482l5.703,4.108l2.73,6.48l2.805,6.666
			l12.922,3.635l2.965,0.834l2.672,1.526l17.199,9.83l1.418-3.306l1.539-3.588l2.559-2.95l13.305-15.332l10.59-20.897l4.82-13.261
			l3.863-0.288l10.523-4.118l15.34-6l4.391-1.718h4.715h24h2.477l2.43,0.486l18.488,3.699c6.762-1.329,13.539-2.702,15.617-3.193
			c2.402-0.715,5.215,10.457,17.184,8.654c6.645-1,18.738-2.82,22.391-3.59c4.062-1.298,8.234-1.584,13.398-1.584
			c4.043,0,8.852,0.196,13.094,0.37c2.562,0.104,5.199,0.211,6.801,0.235c1.061-0.128,2.133-0.193,3.215-0.193
			c5.332,0,10.596,1.49,18.16,5.14c2.656,1.282,5.229-8.958,7.23-7.835l9.168,3.243l26.551,6.322l54.75-3.51l60.039-3.754
			l0.781-0.048h0.777h49.5h4.059l3.848,1.284l21.965,7.322l27.625-2.44h80.613l67.684-5.505l2.811-0.658h2.887h40.5h2.348
			l2.311,0.438l43.5,8.25l3.41,0.648l3.107,1.552l44.221,11.768h32.043l45.332-15.108l44.611-0.128l4.168-1.528h4.441l50.996-10.334
			h7.762l6.398,4.398l23.836,10.492l55.5,37.502l2.586,1.748l2.078,2.334l21,23.562l1.951,2.194l1.396,2.588l17.129,55.071l20,8
			l9.738-30.738l13.729-19.656l7.539-20.856c2.961-15.073,3.254-15.958,3.771-17.515l0.016-0.042l0.012-0.042
			c0.945-2.808,1.143-3.392,15.738-28.576l2.164-3.736l3.297-2.794l15.332-7.111l3.854-3.266l4.818-1.516l17.5-5.5l9.268-2.912
			l8.805,4.108l7.5,3.5l9.742,4.546l3.4,4.311c0.729,2.171,1.691,4.8,2.311,6.315c0.629,0.954,1.199,1.97,1.729,3.07l11.738,9.41
			l11,42l2-35l-5.141-11.514l0.168-0.496l0.189-0.488l4.5-11.5l2.547-6.506l5.553,1.649l8.5-6.5l4.939-3.78l6.139-1.022l18-3
			l0.361-0.06l0.363-0.05l17.5-2.39l1.684-0.23h1.699h20.5h2.586l2.531,0.528l21,4.39l0.977,0.206l0.961,0.282
			c13.316,3.917,18.264,5.52,20.342,6.252c1.301,0.303,4.098,0.861,6.021,1.246c6.203,1.237,10.311,2.056,13.711,3.29
			c1.639,0.281,4.264,0.644,6.811,0.967c0.271-0.192,0.543-0.382,0.797-0.567l3.77-2.71l4.504-1.18l72.664-7.392l5.422-1.418
			l5.514,1.032c12.164,2.282,33.219-5.458,37.926-4.784c4.527,0.646,12.09,2.536,25.457,11.446c4.305,2.871,11.836,2.351,16.922,7.92
			c4.301,3.11,18.082,10.986,30.039,17.404l35.754,5.363l21.961,3.294l-0.68,22.196l-1.914,62.415l5.621,25.75l31.969,28.604
			l8.68,7.768l-0.363,11.644l-2.598,83.19l3.117,85.751l3,40l7,5l2.746-58.062c0.426-14.057,1.582-25.375,2.113-35.913
			c2.193-43.646,23.016-106.896,27.297-119.503c2.156-13.301,13.914-85.872,16.055-100.102l1.133-38.623l0.387-13.16l11.074-7.128
			c32.809-21.118,39.332-23.292,41.789-24.112c2.613-0.87,5.336-1.312,8.098-1.312c10.918,0,18.238,5.977,24.371,14.363l2.215-4.626
			l6.152-12.848l14.191-1.26c19.035-1.69,64.09,0.271,71.354,0.271c1.398,0,2.686,0.084,3.932,0.254l0.064,0.01l0.066,0.01
			c1.238,0.158,7.012,0.498,16.715,0.498c7.738,0,12.771-0.224,14.439-0.381l49.408-9.883c14.307-2.862,33.26-3.084,38.729-3.084
			c12.414,0,16.109,0.89,19.082,1.88c3.723,1.242,11.336,4.728,14.844,6.396c11.582,5.516,15.828,2.654,18.93,5.753l19.066,19.068
			c2.789-3.236,7.352-8.315,15.016-16.488l0.727-0.774l0.789-0.71c3.949-3.556,10.301-3.459,12.047-5.206
			c5.492-5.494,12.957-8.28,22.189-8.28c6.766,0,14.918,1.414,20.865,2.448c1.104,0.19,2.535,0.439,3.32,0.562
			c10.977,0.667,18.457,1.878,27.051,10.038c0.152,0.146,0.316,0.302,0.488,0.465c3.094,0.603,7.352,1.342,10.527,1.893
			c11.398,1.977,17.25,3.073,21.609,4.554c1.434,0.152,5.035,0.43,12.152,0.43c9.746,0,21.703-0.536,31.211-1.402
			c18.363-1.668,45.061-7.39,52.199-9.174l36-3.109l1.387-0.346l1.414-0.187c3.383-0.446,33.508-4.346,50.145-4.346
			c2.242,0,4.211,0.066,6.016,0.204c12.652,0.974,43.484,6.038,50.008,8.21l0.633,0.21c12.801,4.184,25.797,3.388,31.82,15.438
			c2.078,4.15,7.223,16.521,9.328,21.621c2.625,5.127,9.988,20.637,11.227,35.483c0.229,2.715,0.664,5.351,1.156,7.639
			c4.172,0.679,8.617,1.287,10.668,1.446c10.004,0.248,18.406,5.608,31.691,20.097l3.754,4.096l1.664,5.298
			c1.055,3.346,4.578,14.784,5.77,21.496c0.582,3.281,1.98,32.478,3.879,40.889c1.355-1.743,3.93-20.628,5.143-22.105
			c0.447-0.545,0.965-1.166,1.451-1.768c0.871-4.947,2.635-10.571,5.027-17.98c1.074-3.323,2.668-8.264,3.105-10.235
			c0.199-3.129-0.061-12.824-0.223-18.703c-0.414-15.384-0.473-21.196,0.488-25.996c0.465-2.33,1.258-5.328,2.617-10.428
			c1.121-4.209,3.402-12.759,3.914-15.863c0.125-3.252,1.086-11.501,8.441-44.283l2.852-12.69l12.027,0.624l24.285-10l2.113-0.872
			l2.232-0.472c4.91-1.038,30.17,5.394,45.273,5.394c5.793,0,10.41,0.72,14.531,2.266c6.781,2.542,62.939,4.695,72.801,8.058
			c4.566,0.673,19.898,2.138,35.203,3.232c0.012,0,0.34,0.022,1.047,0.022c10.273,0,36.746-3.652,49.469-5.408
			c10.117-1.396,12.121-1.662,14.48-1.677c3.891-0.09,43.742,3.705,68.086,2.599l2.68-0.122l2.646,0.448l53,3.426l0.129,0.022
			l0.125,0.024c27.875,5.032,58.621,10.462,69.375,12.195c3.285-0.975,9.857-3.063,22.977-7.531c1.094-0.372,1.895-0.644,2.301-0.78
			c5.621-1.874,38.691-8.734,39.004-8.796c8.984-1.797,59.557-2.462,61.824-2.485c3.014-0.03,16.902,4.234,27.059,3.303
			c20.215-1.856,30.262-2.73,35.02-2.73c8.695,0,37.566,2.584,43.266,3.102l8.145-4.832l6.129,5.41
			c6.207,5.474,17.664,15.31,21.992,18.402c6.934,4.858,53.07,31.006,60.762,34.136c5.203,2.08,13.066,6.002,25.396,12.216
			c7.012,3.533,17.383,8.757,21.117,10.314c3.184,0.592,11.662,1.822,18.016,2.742c19.441,2.82,27.811,4.14,32.922,5.546
			c0.918,0.044,2.559,0.094,5.316,0.094c6.289,0,14.607-0.248,22.65-0.49c7.289-0.218,14.178-0.424,19.078-0.424
			c4.32,0,6.93,0.154,9.305,0.548c6.393,1.065,34.006,8.29,46.082,11.48c11.703,2.615,27.238,5.393,33.293,5.594
			c1.561-0.367,3.25-0.745,5.01-1.136c4.012-0.895,12.082-2.695,15.309-3.947c7.348-5.07,16.918-6.949,27.879-9.101
			c2.707-0.532,6.621-1.301,8.535-1.806c3.363-1.672,10.742-4.527,29.988-8.92c10.943-2.499,25.824-5.475,34.689-5.502
			c6.691-0.316,31.178-7.786,36.992-10.389c0.91-0.497,3.268-1.979,5.004-3.071c9.297-5.842,22.027-13.842,34.652-16.136
			c11.582-2.106,37.652-8.73,43.32-11.25c4.09-1.817,12.664-5.982,20.48-9.826L15360,0.606H4820.918z"/>
	</g>
	<g id="bottom_top_1">
		<path fill="#00FF00" d="M6635.252,381.866L6731,370.5l101.25-5.25l126.453-15.993l-0.441-5.008l177.793-10.402l41.89-0.279
			l42.207-0.521l57.505-1.011L7306,336.5l39,8.5l107.5,8.5l119,13.667l42.333,4.333l144.667,21.333l9.667-51.667l24.666-11.833
			l-66.333-7.167l-55.333-3.667l-18.833-1.5l-57,1.167L7462.667,334.5l-61-2.667L7348.5,322c-4.34-1.581-9.773-3.466-12.333-4.667
			c-1.944-0.123-11.258-4.167-13.667-4.167c-2.23,0-7.721-2.831-10.5-2.667l-9,1l-6.5,1l-29,0.5H7244
			c-6.559,0.082-21.824-0.749-30.5,0c-9.523,0.819-17.893,0-25,0c-3.552,0-11.209,5.656-15.033,4.854
			c-3.457,1.256-9.271,1.293-13.467,3.146l-95.667,15l-66.745,0.887l-47.255-4.72l-33.667,15.167l-95.333,3l-29.5-5.833
			l-52.806,9.642l-11.74,1.437l-0.104,0.012l-34.021,8.395L6666,361.333l-21.001,5.079L6623.5,378l-65.333,26.5l-17.917,3.5l-11,9.75
			l11.5,11L6635.252,381.866z"/>
	</g>
	<g id="bottom_top2">
		<path fill="#00FF00" d="M12257.629,237.496l9.227-0.6l60.645-0.396l37.5-8l60.25-31.5l17.25-52.165l-10.943-0.148l3.783-8.905
			l-3.68-1.564l-4.426,10.41l-11.881-0.16c0,0,0.051,8.695,0,9.635c-0.211,3.898-2.604,15.397-2.604,15.397l-10.896,13.102
			l-20.998,10.5l-11.605,6.648l-9.25,6.75l-7.75,3.75l-21.25,8.5l-31.141,7.351h-23.998l-10.193,1.901l-8.332,4.666l-2.668,3.668
			v0.001l2.895,0.133L12257.629,237.496z"/>
	</g>
	<g id="bottom_bottom">
		<path fill="#00FF00" d="M15321.266,296.706c-1.354,0-2.695-0.104-4.018-0.31c-0.412-0.011-1.047-0.021-1.977-0.021
			c-1.893,0-4.068,0.04-6.045,0.089l-40.965,22.939l-6.461,4.746l-1.594,1.172l-1.756,0.902c-2.318,1.191-14.459,7.277-26.029,9.852
			c-4.25,0.946-5.684,1.88-8.41,4.604c-7.217,7.219-15.143,10.229-19.877,12.023c-0.428,0.162-0.939,0.354-1.381,0.529
			c-2.879,2.967-13.516,14.775-41.848,53.603c-20.047,27.47-35.523,41.748-44.773,50.28c-2.264,2.088-5.078,4.686-5.857,5.632
			l-5.467,7.288l-8.982,2.021l-38.199,8.604l-12.721,13.953c-11.564,60.736-18.639,94.763-21.039,101.164
			c-1.719,4.584-7.041,22.87-11.734,39.004c-2.537,8.712-5.156,17.721-7.705,26.316c-3.572,12.064-8.955,21.697-15.99,28.621
			c-7.887,7.767-17.854,12.036-28.066,12.036c-11.758,0-22.492-5.562-28.711-14.889c-0.938-1.401-1.793-2.771-2.621-4.088
			c-1.324-2.107-3.293-5.248-4.367-6.303c-7.391-4.348-12.508-10.978-16.152-17.489c-0.637,2.446-1.32,4.963-2.059,7.489
			c-6.938,23.854-14.82,37.438-25.893,44.268c-0.383,1.78-0.967,3.933-1.988,6.249c-4.318,9.78-13.518,15.891-24.059,16
			c-1.51,0.062-7.215,0.46-12.264,0.812c-14.186,0.989-33.613,2.351-42.812,2.351c-3.211,0-5.484-0.151-7.594-0.506
			c-4.141-0.691-8.086-1.353-40.762-19.048c-11.629-6.303-30.164-16.609-34.961-19.809c-4.555-3.038-12.621-9.68-23.523-18.729
			c-3.367-2.798-7.559-6.276-8.613-7.076c-7.668-5.75-10.668-13.706-16.121-28.147c-2.199-5.821-6.773-17.943-9.09-21.143
			c-5.535-7.61-12.137-20.974-17.301-32.302l0.605-39.068l-2.422-0.005l-0.527,33.864c-1.75-3.954-3.242-7.44-4.34-10.049l0.59-1.609
			l-44.223-29.955l-1.633,4.479c-0.77-3.471-1.402-7.521-2.18-12.533c-0.633-4.102-1.797-11.622-2.543-14.173
			c-1.641-3.899-4.242-10.872-8.246-21.646c-2.801-7.538-6.285-16.921-7.539-19.855c-4.125-9.614-3.754-16.896-2.637-22.343
			c-1.156-11.671-2.453-16.812-3.043-18.678c-0.598-0.673-1.453-1.583-2.082-2.254c-5.621-5.987-15.027-16.004-14.402-30.808
			c0.008-0.232,0.02-0.475,0.035-0.715c-3.094,1.729-5.883,2.835-7.75,3.573c0,0.001-0.004,0.002-0.004,0.004
			c-4.156,5.858-8.492,11.901-14.539,18.109c-0.941,1.802-2.465,5.905-3.508,8.713c-2.266,6.111-4.836,13.04-8.656,19.406
			c-3.566,5.939-5.52,25.832-7.531,49.271c-2.613,30.536-4.746,38.026-10.16,51.644c-0.738,1.849-1.496,3.761-2.34,6.003
			c-1.43,3.812-0.285,15.307,0.473,22.908c0.98,9.804,2.086,20.905,0.996,31.801c-1.328,13.271-0.609,36.706-0.176,50.709
			c0.168,5.514,0.301,9.866,0.301,12.804c0,10.062-4.496,24.382-26.859,64.624l-0.289,0.521
			c-7.609,13.697-23.012,18.181-33.934,20.354c-12.387,2.47-24.629,2.736-29.32,2.736c-3.211,0-6.133-0.108-8.68-0.32
			c-3.445-0.288-9.715-0.604-16.355-0.94c-24.645-1.252-34.348-1.955-40.625-3.683c-2.145-0.185-8.566-0.541-26.059-0.541
			c-10.121,0-20.5,0.12-26.703,0.191c-2.816,0.03-4.758,0.055-5.887,0.059c-1.762,0.115-8.996,1.03-17.934,3.092
			c-13.355,3.08-17.449,5.688-17.488,5.712c-7.27,4.854-18.625,9.582-69.418,9.582c-21.301,0-42.441-0.895-48.211-1.539
			c-7.848-0.871-64.027-4.584-70.523-4.845c-6.492,0.058-33.816,0.979-41.488,1.997c-10.27,3.828-45.344,16.038-55.039,18.947
			c-7.469,2.238-18.746,2.502-46.727,2.632c-12.047,0.056-31.91,0.147-37.871,1.009c-3.648,1.217-7.707,1.103-12.383,1.103
			c-13.156,0-32.457-4.125-40.129-6.206c-26.039-7.062-32.777-12.146-36.926-17.051c-2.355-2.152-9.91-7.814-14.504-11.26
			c-9.473-7.1-15.473-11.646-19.324-15.496c-4.766-4.767-9.734-11.021-14.539-17.064c-2.48-3.126-4.824-6.076-6.766-8.339
			c-9.082-10.604-10.281-26.896-10.598-50.292c-3.027-1.257-6.398-2.527-9.285-3.527c-10.504,5.733-30.285,17.748-34.324,20.388
			l0.059-0.036c-2.082,1.408-19.223,13.686-34.277,24.498l-0.965,0.694l-1.031,0.6c-5.977,3.487-35.359,20.566-46.258,25.709
			c-2.84,2.303-8.859,9.462-11.504,12.607c-6.207,7.39-10.457,12.447-17.332,15.222c-1.43,0.729-4.902,2.634-7.504,4.062
			c-21.531,11.81-27.879,14.808-35.996,14.808h0.082c-0.918,0.01-4.996,0.17-8.59,0.312c-9.855,0.389-24.742,0.973-33.863,0.973
			c-5.441,0-8.539-0.195-11.266-0.714c-0.855-0.13-3.41-0.39-5.281-0.574c-17.441-1.758-29.59-3.425-38.309-10.159
			c-1.477-0.968-5.977-3.397-8.988-5.027c-12.277-6.64-20.754-11.413-26.465-17.127c-1.328-1.321-3.793-3.277-6.172-5.175
			c-5.809-4.609-12.398-9.838-17.496-16.974c-8.211-11.496-6.711-26.681-4.977-44.261c0.387-3.925,0.941-9.516,1.016-12.589
			c-2.645-5.697-8.805-16.516-11.344-20.021c-3.008-3.301-5.84-7.802-10.605-15.502c-1.059-1.707-2.547-4.106-3.773-6.03
			c-2.41,6.165-5.504,12.732-9.754,18.576c-10.434,14.344-25.551,17.601-34.836,19.104c-0.863,1.891-1.742,3.931-2.355,5.354
			c-3.098,7.208-5.66,13.169-10.59,17.811c-1.023,1.441-2.715,4.021-3.91,5.844c-7.02,10.688-12.09,18.418-20.348,22.545
			c-4.816,2.409-10.191,3.611-29.973,7.83c-10.418,2.221-23.391,4.98-36.34,8.106c-16.82,4.062-25.09,8.646-30.559,11.683
			c-2.035,1.127-4.105,2.271-6.367,3.271c-2.305,2.584-5.918,7.141-8.27,10.11c-4.57,5.765-8.887,11.212-12.992,15.312
			c-13.461,13.46-33.75,14.79-59.441,16.479c-3.672,0.237-7.469,0.487-11.391,0.775c-7.535,0.562-13.32,0.817-18.207,0.817
			c-15.77,0-24.059-2.804-35.531-6.683c-1.258-0.425-2.586-0.875-4.016-1.354c-9.148-3.052-16.598-3.754-23.801-4.432
			c-4.691-0.444-9.125-0.862-13.715-1.883c-2.121-0.474-4.559-1.08-7.148-1.729c-3.652-0.914-10.586-2.646-14.574-3.271
			c-2.281,0.597-4.668,0.897-7.121,0.897c-6.574,0-14.391-1.897-32.996-11.37c-5.402-2.75-10.414-5.477-13.609-7.247l-11.922-2.479
			l-19.359,9.321l-4.098,1.973l-4.527,0.403l-45.645,4.068l-68.711,7.016c-40.105,19.777-43.711,12.414-45.336,12.956
			c-2.883,0.952-5.945,1.433-9.152,1.433c-7.539,0-22.41,5.286-42.969-1.592l-3.551-1.188l-3.047-2.178l-15.602-11.146l-66.691-6.809
			l-49.586-4.248l-46.164,6.104l-35.918,15.666l-2.836,1.236l-3.047,0.51c-10.387,1.736-21.831,4.259-27.803,6.062
			c-17.64-0.319-44.551-0.953-51.041-1.577c-7.084-0.677-14.393-1.377-19-1.476c-3.158,1.179-6.576,1.794-10.119,1.794
			c-8.34,0-18.086,3.303-33.156-4.979c-3.717-2.043-7.201-4.079-9.955-5.729l-32.285-1.153l-27.992,6.086l-13.742,5.745l-8,0.125
			h-6.303h-43.5h-10.863l-7.617-1.994c-0.232-0.248-5.717-6.132-11.287-12.695c-9.703-11.438-14.977-19.014-16.172-27.52
			c-1.33-3.707-5.559-13.03-9.625-21.161l-0.994-1.99l-0.627-2.136c-2.35-7.981-6.082-20.571-7.879-26.423
			c-0.348-0.363-0.746-0.765-1.172-1.176l-8.668,21.186c-0.504,3.315-1.383,8.717-2.51,14.181
			c-1.176,5.712-2.365,10.276-3.641,13.962c-1.166,3.376-2.475,6.203-4,8.648c-4.924,7.886-12.641,12.59-21.346,13.074
			c-5.67,2.063-19.727,8.653-32.264,15.172l-5.42,2.82h-6.113h-58.5h-3.078l-2.984-0.746l-59.996-15l-2.371-0.598l-2.209-1.04
			c-31.795-14.962-36.088-21.396-38.654-25.242c-0.551-0.828-1.594-2.309-2.695-3.868c-6.072-8.612-10.43-14.986-12.844-20.767
			c-1.643-2.483-6.033-8.149-10.74-13.884c-10.408-4.774-32.381-14.896-37.518-17.454c-0.803-0.378-3.445-1.469-5.57-2.349
			c-29.037-12.006-44.547-20.166-51.309-32.506c-4.562-3.351-15.613-9.155-21.23-12.104c-9.545-5.016-15.152-8.02-19.404-11.419
			c-5.219-4.177-11.002-10.604-19.234-19.937c-2.836-3.216-7.029-7.969-8.768-9.666c-8.691-6.477-12.229-16.962-18.465-44.884
			c-2.555-11.438-4.73-22.488-5.59-26.939c-4.295-11.76-10.9-29.625-13.352-35.725c-2.76-3.815-12.148-13.905-21.15-22.711
			l-20.176-16.558l-0.689-0.563l-0.65-0.616l-10.201-9.668l-8.23-3.4l-0.67,0.749l-11.877,37.271l-0.281,0.884l-0.348,0.86
			l-18,44.724l-6.303,15.666h-16.889h-32.996h-7.074l-6.023-3.706l-5.195-3.195l-8.758,2.818l-24.957,19.703l-0.785,0.622
			l-0.836,0.556l-26.998,18l-0.307,0.204l-0.312,0.196l-47.996,29.998l-1.684,1.052l-1.828,0.771l-35.887,15.187l-25.855,20.413
			l-2.172,1.716l-2.5,1.2l-37.496,18l-7.039,3.378l-7.707-1.229l-66-10.5l-3.488-0.557l-3.199-1.498l-47.996-22.5l-8.668-4.062
			l-3.734-8.812l-20.059-47.284l-0.922-2.182l-0.5-2.315l-41.293-191.701l-10.398-15.896l-14.816-11.934l-4.957-3.989l-2.441-5.874
			l-8.242-19.803l-9.07-7.871l-2.637-2.292l-1.617-2.487c-0.309-0.423-0.699-0.904-1.094-1.359c-0.203,0.002-0.387,0.011-0.547,0.018
			c-11.281,3.182-23.023,6.893-26.578,8.397c-4.254,2.525-9.113,3.85-14.176,3.85c-4.047,0-14.422-0.003-33.039-16.158l-24.68-10.468
			l-4.48-1.902l-3.441-3.442c-0.164-0.165-0.352-0.351-0.543-0.542c-4.34-1.219-10.707-3.112-14.367-4.573
			c-0.648-0.239-2.473-0.86-3.949-1.36c-11.145-3.786-20.141-6.974-26.043-10.664c-3.277-2.05-6.922-5.251-10.41-9.058
			c-0.461,1.587,2.027-7.947,1.395-5.943l-3.75-14.25l0.5-2l-0.75-2.75l-1.25-6.5l-2.586-7.341l-2.578-0.01l-0.727,93.833
			l-33.266,34.979l-26.301,41.174l-21.211,174.926l-0.48,3.979l-1.699,3.625l-10,21.334l-1.988,4.242l-3.387,3.229l-14.668,14
			l-5.973,5.7l-8.191,1.023c-47.07,5.876-122.051,15.322-136.781,17.392c-7.648,3.249-29.305,12.933-34.727,16.034
			c-4.461,3.288-10.66,5.916-25.359,11.956c-5.859,2.41-15.457,6.353-18.711,8.057c-4.938,3.62-10.945,5.46-17.883,5.46
			c-8.43,0-18.578-2.718-31.992-6.561c-1.059-0.305-2.238-0.646-3.402-0.974c-18.594,9.406-23.848,11.777-26.992,12.825
			c-4.699,1.565-75.652,18.396-101.832,24.523c-100.664,23.58-106.418,23.58-110.617,23.58c-4.465,0-8.625-1.041-12.391-3.096
			c-0.957-0.396-3.02-1.146-4.434-1.652c-5.086-1.841-9.457-3.421-13.309-5.784c-1.641-0.439-4.129-1.012-6.559-1.502
			c-2.207,0.021-5.66,0.047-9.734,0.047c-9.441,0-17.379-0.132-23.59-0.393c-11.906-0.498-24.215-1.019-32.215-11.685
			c-1.293-1.722-2.664-3.906-5.391-8.292c-1.453-2.328-4.215-6.767-5.77-9.055c-2.773-2.807-6.617-8.132-14.703-21.493
			c-2.363,4.595-4.727,9.255-6.051,11.957c-0.57,4.309-1.602,13.592-2.543,23.026c-1.07,10.687-6.719,18.979-13.629,24.334
			l-12.676,21.013l-6.922,11.474l-13.387,0.593c-19.809,0.869-41.18,3.191-63.801,5.653c-23.551,2.562-47.898,5.212-71.715,6.286
			c-1.469,0.066-2.973,0.104-4.473,0.104c-18.488,0-36.375-5.079-52.16-9.562c-12.727-3.607-24.746-7.021-34.148-7.021
			c-0.578,0-1.105,0.012-1.621,0.031c-64.348,3.009-111.266,21.954-117.523,24.604c-3.492,1.984-8.09,2.504-26.531,10.423
			l-7.008,1.464l-5.285-0.061l-52.5-0.584c-2.773,0.146-11.246,0.584-17.941,0.584c-4.531,0-8.789-0.126-12.891-1.153
			c-0.633-0.016-1.516-0.03-2.715-0.03c-7.754,0-18.988,0.561-19.102,0.562l-1.887,0.095l-1.883-0.188l-45.34-0.85h-22.07h-2.418
			l-2.371-0.462c-32.969-6.435-36.332-8.959-40.223-11.881c-7.105-5.32-9.902-12.556-11.75-17.342
			c-0.094-0.238-0.203-0.522-0.309-0.8c-4.105-5.551-6.039-12.492-5.793-20.77c-1.41-1.749-2.664-3.265-3.582-4.325
			c-2.512-1.672-5.492-3.965-9.805-7.277c-1.738-1.339-4.395-3.386-5.988-4.554c-1.582-0.692-3.746-1.688-7.047-3.211
			c-1.414-0.647-3.309-1.521-5.191-2.381l-6.973,9.146l-3.246,4.265l-4.711,2.558l-21.043,11.427
			c-22.16,18.82-26.996,21.596-29.379,22.803c-1.66,0.974-6.656,4.356-9.676,6.407c-9.223,6.254-12.332,8.355-16.598,9.777
			c-5.426,1.812-15.379,2.628-20.707,2.628c-2.676,0-8.629,0-14.805-2.451c-2.707,0.159-6.078,0.548-8.082,0.842l-6.406,0.938
			l-6.078-2.29c-11.797-4.463-26.75-10.229-31-12.354c-3.031-1.519-19.559-8.604-23.32-9.948c-2.406-0.712-12-2.899-19.754-4.562
			l-24.309-4.488l-12.844,3.896l-3.551,1.078h-3.711H8999h-2.359l-2.316-0.441c-17.404-3.312-21.156-5.188-23.172-6.194
			c-2.805-1.4-17.5-9.479-23.688-12.884l-2.582-1.426l-2.176-1.979l-9.348-8.498h-6.586c-2.672,1.1-7.168,3.254-11.332,5.385
			c-5.648,6.635-15.293,17.854-19.234,21.792c-1.637,1.635-6.613,6.609-21.238,12.947c-11.57,5.015-17.965,6.083-21.328,6.312
			c-4.75,1.023-19.934,5.536-32.027,9.389l-9.941,3.162l-9.242-4.844l-31.496-16.5l-0.332-0.175l-0.324-0.183l-22.926-12.896
			l-61.73-27.07l-3.074-1.353l-2.613-2.111l-26.77-21.675l-3.043-1.881l-2.496,0.762l-11.578,5.788l-12.332,12.867l-6.324,6.604
			l-9.09,0.964l-44.002,4.668l-7.758,0.824l-6.85-3.736l-14.668-8l-0.975-0.532l-0.924-0.611l-12-8l-5.523-3.687l-2.969-5.938
			l-2.024-4.054l-21.46-20.303l-2.183-2.062l-1.63-2.521l-11.891-18.386l-7.117-10.458l-10.182-14.964l11.033-14.348l1.868-2.43
			c0.168-4.607,0.245-8.811,0.197-11.214c-1.211-4.692-1.466-10.521-0.939-18.854c-2.12-5.631-4.516-11.959-5.188-13.646
			c-1.914-4.78-2.252-9.464-2.68-15.395c-0.144-1.994-0.38-5.273-0.672-7.515c-4.983-7.985-5.41-17.227-4.456-24.786
			c-1.464-2.823-3.178-6.167-4.942-9.689l1.464-9.739l-4.333-56.666l-1.496,8.217l-0.73,84.805l-2.526,11.51l-0.304,1.388
			l-0.46,1.345c-9.727,28.435-13.083,33.195-15.232,35.903c-0.288,0.494-0.761,1.484-1.039,2.188l-2.677,7.425l-6.43,4.252
			c-8.729,6.07-14.537,9.634-18.608,11.776V621v7.57l-4.198,6.298l-16,24l-1.374,2.061l-1.75,1.75l-7.494,7.494
			c0.221,7.797,0.043,15.724-1.113,20.922c-1.971,8.876-7.973,16.938-17.834,23.947c-3.596,2.56-10.384,6.9-17.25,8.729
			c-3.886,1.424-18.218,7.631-30.208,12.979l-34.446,18.852l-3.282,1.798l-3.666,0.756c-44.5,9.182-47.626,9.182-50.384,9.182
			c-6.807,0-26.353-4.073-36.578-10.462c-5.504-3.443-9.424-7.633-11.985-10.556c-2.396-1.293-5.774-3.201-10.729-6.093
			c-1.562,0.225-2.996,0.439-4.187,0.639c-2.334,1.889-5.551,4.662-7.42,6.419c-1.146,1.772-3.256,5.764-4.479,8.367l-3.358,7.14
			l-6.854,3.918c-23.312,13.324-28.938,13.324-33.453,13.324c-2.104,0-4.188-0.25-6.209-0.742l-0.065-0.016l-0.067-0.021
			c-6.285-1.566-9.735-3.864-33.58-22.312c-2.095-1.619-4.444-3.438-5.285-4.066c-2.205-1.49-5.071-3.785-21.474-21.613l-0.03-0.029
			l-0.03-0.036c-5.453-5.975-14.688-15.767-18.146-18.834c-6.101-5.42-10.272-12.017-13.039-16.374
			c-0.276-0.438-0.606-0.959-0.897-1.413c-0.354-0.337-0.694-0.672-1.021-1.002c-8.733-4.519-14.149-13.334-17.565-19.176
			l-2.146-3.12l-2.752,15.975l-0.472,2.723l-1.051,2.557l-2.834,6.883l0.49-76.438l-2.586-0.013l-0.529,82.827l-4.439,10.783
			l-13.537,2.39c-5.463,0.965-9.818,1.718-13.312,2.305c-0.91,2.035-1.826,4.156-2.586,6l-1.215,2.943l-1.914,2.546
			c-17.535,23.312-21.207,25.15-25.459,27.278c-3.75,1.872-7.986,3.1-20.785,4.63c-2.848,0.34-12.604,1.45-18.646,1.45
			c-2.188,0-4.07-0.144-5.851-0.441c-1.905-0.242-9.513-1.012-16.248-1.688c-55.858-5.639-59.295-6.505-64.842-9.277
			c-5.668-2.834-10.08-7.083-14.226-11.766c-5.043-1.002-12.729-2.292-18.885-3.192l-0.287-0.042l-0.285-0.048
			c-7.438-1.268-31.959-5.447-35.385-6.135c-4.576-0.914-8.541-1.706-37.217-22.042l-5.604-3.978l-148.092-8.814l-16.545,24.42
			l-1.408,2.078l-1.795,1.756l-28.498,27.925l-2.319,2.274l-2.828,1.604l-19.498,11.074l-3.388,1.924l-3.812,0.802l-28.5,6
			l-5.484,1.154l-5.453-1.298c-12.164-2.897-33.29-7.995-38.113-9.604c-4.393-1.466-25.166-9.9-36.369-14.479
			c-27.896-4.456-32.556-5.996-34.11-6.52c-3.079-0.974-21.383-5.849-37.418-10.029l-3.448-0.897l-3.061-1.828l-30.672-18.312
			l-2.668,6.935l-7.229,20.367l-1.932,5.437l-4.108,4.037l-38,37.332l-6.666,6.552l-9.326,0.568l-32.666,2l-8.324-0.13l-7.069-4.021
			l-12-8l-4.586-3.062l-2.875-4.704l-2.092-3.422c-2.987-1.386-5.905-2.715-8.252-3.75c-5.347,1.127-13.523,2.938-21.051,4.634
			l-26.563,11.869c-7.817,5.771-12.354,9.213-16.957,10.229l-2.378,0.007c-1.225-0.844-2.67-2.905-3.779-1.957l-2.307,1.973
			l-49.536,0.127v0.001c-5.601-0.406-7.869-0.231-12.385,0.104c-1.983-0.826-5.183-1.854-7.078-2.565
			c-4.127-1.551-6.937-2.605-9.349-3.844c-0.729-0.199-1.758-0.445-2.545-0.604l-0.897-5.598l-4.25-0.75l-2.25-5.75l-3-28.5
			l-3.235,11.486l-8.515,23.014l-0.045,9.297c-6.776,1.54-16.071,3.376-21.867,3.376c-2.492,0-4.787-0.269-7.021-0.817
			c-3.717-0.931-7.703-2.609-16.211-8.147c-3.104-2.021-5.433-3.653-7.181-4.959c-11.342-3.686-49.474-13.757-56.556-15.041
			c-6.985-0.897-15.856-4.403-31.586-11.304c-0.793-0.35-1.703-0.746-2.396-1.048c-3.179-0.752-11.388-2.544-18.914-4.147
			c-4.694-0.081-15.414-0.249-23.418-0.249c-3.871,0-5.875,0.04-6.842,0.071c-2.694,0.424-5.705,0.521-9.801,0.521
			c-3.631,0-7.873-0.097-10.976-0.182l-48.146,15.083l-19.213,12.229l-1.418,0.898l-1.523,0.706
			c-37.582,17.345-41.908,16.863-46.896,16.863c-2.26,0-4.439,0.197-6.566-0.364c-3.977-0.542-16.211-1.57-26.084-2.259l-1.25-0.088
			l-1.234-0.214c-8.861-1.521-19.684-3.296-22.703-3.687c-2.26-0.128-5.449-0.577-14.379-1.891c-2.125-0.312-4.889-0.719-7.082-1.028
			c-0.264,0.079-0.516,0.155-0.746,0.228c-7.203,2.155-11.943,3.472-16.998,3.472c-0.594,0-1.186-0.021-1.771-0.06
			c-2.158,0.275-6.207,0.959-10.186,1.718l-16.936,2.628l-49.851,0.5l-5.69-0.466l-1.328-0.871l-1.207-1.033
			c-1.521-1.306-3.414-2.853-4.498-3.687c-4.416-2.462-7.812-6.104-10.938-10.556l-1.312,0.131l-8.438,0.845l-7.209-4.464l-10.5-6.5
			l-6.664-4.124l-3.115-7.188l-6.479-14.952l-3.576-8.124l-4.188-4.188l-0.146-0.146l-0.143-0.147
			c-0.316-0.326-0.643-0.66-0.971-0.997l-1.01,1.152l1.818-20.293l-6-5.875l-6.25,25.875l3.088,8.684l-1.236,7.638l-8.705,3.729
			l-3.059,3.491l-1.041-1.734c-11.301,4.845-12.908,5.378-13.771,5.666v-0.001c-2.723,0.907-5.52,1.353-8.547,1.353
			c-0.778,0-2.229,0-5.104-0.358l-4.986,4.274l-3.787,3.246l-4.742,1.544c-6.521,2.122-14.352,4.751-18.254,6.146l-5.465,7.854
			l-7.037,10.12l-12.312,0.572c-10.041,0.477-21.045,1.313-25.703,1.938c-3.056,1.218-6.729,2.027-11.106,2.027
			c-5.984,0-14.174-1.396-27.189-3.965c-1.477-0.291-3.309-0.65-3.887-0.752c-3.154-0.472-14.908-2.625-22.033-3.968
			c-20.843-3.925-22.629-4.583-24.943-5.508c-1.378-0.531-8.407-3.02-16.1-5.717l-7.336,1.771l-3.578,0.862l-3.674-0.204l-18-1
			l-2.961-0.164l-2.838-0.852l-30-9l-2.832-0.854l-2.557-1.483l-25.438-14.803l-16.527-5.783l-19.682-4.688
			c-1.896-0.438-29.269-6.821-42.4-11.023c-14.369-4.603-21.104-12.82-24.49-19.145c-2.076-0.505-4.205-0.965-5.363-1.215
			c-2.842-0.614-4.896-1.058-6.932-1.736c-24.225-8.071-32.162-11.35-35.221-12.84c-2.484-1.017-11.111-3.894-17.904-6.038
			l-3.105-0.979l-2.752-1.745c-5.58-3.538-11.686-7.251-15.373-9.373c-4.383-0.234-9.43-0.547-10.299-0.604
			c-15.949-0.993-17.287-1.327-19.504-1.884c-1.108-0.275-2.971-0.743-31.44-10.399l-15.674-4.587l-0.957,1.913l-1.36,2.729
			l-1.979,2.315l-9.974,11.688c-3.623,22.082-5.258,30.569-6.434,34.758c-0.607,4.068-1.848,16.451-2.709,26.479l-0.41,4.761
			l-2.141,4.271c-0.121,0.246-3.051,6.104-6.287,12.188c-6.57,12.351-10.375,18.985-18.396,22.994
			c-1.306,0.646-3.271,1.634-30.603,11.621l-7.791,2.104l-7.926-1.627c-5.604-1.67-24.131-7.193-27.27-8.242
			c-5.707-1.899-10.479-5.552-18.416-11.838c-1.027-0.812-2.354-1.856-3.166-2.479c-1.975-1.081-6.172-3.435-15.562-8.779
			l-24.65,2.275l-3.951,0.359l-3.867-0.876l-26.5-6l-6.34-1.434l-4.838-4.343c-20.002-17.949-21.49-19.44-21.979-19.933
			c-4.942-4.942-3.731-8.175-4.817-11.8c-0.028-0.045-1.962-1.541-2.802-2.203c0.089-0.116,0.18-0.244,0.269-0.374
			c-1.05,0.512-2.585-8.908-4.217-3.423l0.75-2.375l1-60l-7.479,13.251l-0.908,83.454l-0.754,2.534l-11.894,4.28
			c-37.397,13.465-43.584,13.465-47.278,13.465c-6.938,0-12.049-2.485-15.383-4.912c-0.933-0.559-2.972-1.682-4.371-2.451
			c-5.318-2.931-8.729-4.84-11.554-7.102c-5.729-4.584-10.076-11.352-12.5-17.146c-0.405,0.221-0.797,0.436-1.158,0.629
			c-9.871,5.376-15.076,8.213-21.976,8.486c-2.688,0.531-8.465,1.911-14.098,3.328c-4.564,3.654-7.439,5.433-10.049,6.561
			c-0.455,0.244-1.092,0.594-1.604,0.869c-11.599,6.315-19.312,9.896-26.873,10.691c-0.938,0.099-1.586,0.206-2.336,0.329
			c-1.465,0.237-3.472,0.569-6,0.569c-2.336,0-5.166-0.291-8.189-1.235c-0.502,0.038-0.994,0.078-1.418,0.108
			c-2.314,0.188-4.502,0.362-6.611,0.362c-2.567,0-4.901-0.271-7.133-0.828c-2.885-0.722-17.631-6.004-22.807-9.452
			c-2.701-1.802-4.758-3.818-9.562-8.624c-1.07-1.07-2.764-2.761-3.639-3.598c-0.73-0.571-1.656-1.354-2.795-2.424l-3.078,1.308
			l-14.271,8.06l-4.39,2.479l-5.004,0.584l-15,1.75l-6.472,0.754l-6.021-2.5l-12.834-5.332l-9.645-4.006l-3.933-9.674l-1.832-4.52
			l-4.11-3.229l-0.285-0.226l-0.271-0.229c-5.465-4.552-12.244-10.134-13.67-11.212c-4.051-3.035-7.078-6.938-12.213-14.906
			c-0.602-0.125-1.193-0.27-1.783-0.436c-6.182-1.739-11.953-5.642-15.725-8.618l-3.224-2.548l-2.235-3.446l-12.562-19.342
			l-3.701-5.693l-0.31-6.782l-0.668-14.666l-0.131-2.896l0.533-2.85l2-10.666l0.412-2.2l6.279-0.358l-1.325-7.146l0.575-19.854
			L5031,588l-6.605-28.225L5020,559l-6.5,35.25l1.197,24.977l0.053,29.023l-1.5,5.75l-1,5.5l1.098,37.062l-0.435,3.429l-1.349,3.181
			l-6.061,14.289l-4.85,20.6l-3.086,13.106l-12.644,4.638l-20,7.334l-2.021,0.738l-2.117,0.386l-17.769,3.229
			c-18.938,10.812-24.599,13.197-29.478,13.707c-1.396,0.362-3.58,0.968-5.297,1.438c-13.896,3.829-20.598,5.509-26.41,5.509
			c-5.638,0-10.021-1.637-13.041-3.32c-2.215-1.035-9.34-3.949-15.674-6.456l-6.061-1.264l-32.001,14.104l-4.817,2.122H4805h-40
			h-2.645l-2.59-0.554c-0.395-0.084-9.688-2.078-19.396-4.358c-19.807-4.646-26.105-6.556-31.555-11.609
			c-2.648-2.131-13.25-9.922-22.48-16.604l-9-4.875h-25.662l-20.461,9.154l-7.486,3.35l-8.018-1.735l-40-8.669l-5.312-1.146
			l-4.354-3.252c-21.537-16.085-45.83-34.021-51.666-38.025c-3.123-1.648-0.712-4.967-7.876-11.504l-7.333-6.166l-5.833-7.167
			l-0.166-17.17L4491,647.5l-11.5-36l-4.833,0.667l1.788,92.8l-0.257,0.821l-4.96,15.876l-16.561,1.56
			c-57.836,5.442-59.6,5.442-61.01,5.442c-3.525,0-19.447-1.78-24.244-2.328c-21.774-2.477-25.681-3.419-29.771-5.396
			c-0.938-0.396-3.396-1.357-5.396-2.146c-24.472-9.606-30.732-12.561-35.901-19.438c-1.593-2.062-12.729-15.709-22.677-27.83
			l-1.523-1.856l-1.143-2.112l-24.157-44.689l-20.333-15.758l-16.458-7.771h-17.728h-30h-14.586l-7.181-12.696l-4.912-8.688
			l-10.504-5.252l-2.978-1.486l-2.479-2.212l-30.668-27.334l-2.769-2.464l-1.934-3.162l-4.667-17.207l-0.815,0.889l-3.686-41.222
			l-2.999,11.667l-4.667,36l-6.766,12.43l-1.618,1.765l-1.925,1.422l-15.334,11.332l-0.653,0.479l-0.688,0.44l-9.334,6l-9.318,5.99
			l-10.694-2.884l-17.332-4.666l-6.21-1.673l-4.635-4.461l-14.729-14.182c-13.523-5.827-27.381-11.75-30.338-12.939
			c-4.08-1.348-29.176-9.591-46.061-15.135l-9.553-3.136l-4.723-8.876l-12.431-23.371l-36.323-14.911l-6.539-2.684l-4.164-5.71
			l-13.55-18.574l-3.015-4.13l-1.148-4.982l-9-38.998l0.406-1.435l0.188-0.644l0.471-0.766l0.125-0.142l0.438-0.221l1.438-0.578
			L3798.5,310l-5.684-3.495L3791,344.75l-54.084-9.094l0.014,3.837l-0.863-1.188l-4.78-6.572V323.6v-8.867
			c-3.166-3.652-6.058-6.818-7.562-8.254c-2.104-1.251-6.798-3.75-11.429-6.13l-26.684-1.16l-21.379,3.207l-24.945,18.708
			l-0.555,0.415l-0.574,0.39l-27,18l-5.326,3.55L3599.46,344l-28.83,2.507c-12.812,7.573-37.682,22.21-43.154,24.945
			c-4.433,2.219-25.321,13.132-35.157,18.281c-4.896,3.768-18.646,14.335-22.427,17.19c-0.5,0.379-1.148,0.898-1.914,1.502
			c-11.685,9.266-22.368,16.932-34.79,16.932c-4.954,0-9.79-1.275-13.979-3.688c-3.678-2.114-6.635-4.87-9.012-7.998l-10.459,14.438
			l-9.586,19.102l-3.25,6.479l-6.209,3.73l-59.896,36.028c-22.154,13.775-48.726,30.994-54.793,35.904
			c-3.132,3.438-11.283,10.646-36.007,22.329l-1.512,0.717l-1.593,0.506l-58.444,18.597c-3.584,4.694-8.75,11.393-14.145,18.157
			c-5.834,7.324-10.744,13.226-14.592,17.548c-4.082,4.582-8.812,9.89-15.104,13.061c-2.913,3.27-8.103,10.03-12.194,15.979
			l-7.218,10.479l-12.724,0.347l-56.996,1.5l-3.32,0.086l-3.229-0.782c-8.514-2.064-51.613-12.598-64.388-17.388
			c-6.552-2.456-25.54-5.978-36.93-7.688l-6.068-0.911l-4.96-3.616l-53.268-38.87c-22.055-9.599-68.156-29.896-77.725-35.966
			c-5.18-3.284-34.642-20.875-45.556-27.375l-3.65-2.176l-2.729-3.26l-11.482-13.72l-1.652-0.598l-38.573,6.432l-4.792,0.798
			l-4.74-1.055c-6.938-1.543-67.998-15.111-74.14-16.647c-6.08-1.521-60.962-15.964-63.294-16.578l-5.562-1.464l-4.36-3.746
			l-52.496-45.088l-3.812-3.274l-2.252-4.488c-14.848-29.641-20.818-42.148-23.359-47.811c-3.146-3.02-10.086-8.835-17.137-14.354
			l-46.324-14.989c-54.398-15.146-58.998-17.773-61.748-19.345c-4.973-2.841-5.955-7.93-8.93-10.537
			c-3.859-3.39-5.906-7.595-7.832-9.833l-4.438-23.223l-2.58-0.002L2286.333,290l-9.733,1.013l-97.776,14.726l-66.781,13.75
			l-0.68,0.14l-0.688,0.104l-63.578,9.447l-17.588,24.354l-8.791,26.375l-0.974,2.92l-1.652,2.596l-14,22l-4.878,7.664l-8.658,2.744
			l-41,13l-0.802,0.256l-0.815,0.198l-45,11l-2.927,0.716H1897h-20.751l-13.979,11.982l-3.656,3.136l-4.562,1.552
			c-36.938,12.562-49.76,16.518-55.646,17.759c-2.594,1.074-8.239,3.809-13.633,6.591l-20.484,16.549l-18.688,32.029l-0.379,0.646
			l-0.414,0.624c-11.429,17.141-16.198,23.38-18.479,26.037c-1.956,3.192-6.604,12.259-8.919,16.771
			c-3.782,7.372-5.162,10.032-6.604,12.19c-3.61,5.418-8.759,9.382-27.287,22.26c-1.551,1.077-3.37,2.345-4.528,3.164
			c-2.665,2.938-9.271,11.392-14.836,18.822l-15.74,41.666c-15.854,43.019-19.041,46.208-22.729,49.896
			c-1.529,1.533-5.603,5.604-20.396,12.271c-14.354,6.466-21.396,7.296-25.924,7.296c-4.473,0-8.672-0.959-12.479-2.854l-0.027-0.017
			l-0.024-0.014c-1.608-0.81-3.224-1.81-4.831-2.997l-6.123,7.041l-4.104,4.716l-5.836,2.231l-34,13l-17.498,6.688l-11.334-14.914
			c-0.204-0.27-5.06-6.662-9.938-13.548c-9.208-12.995-14.549-21.127-13.646-31.542c0.001-1.952-0.187-7.216-0.323-11.141
			c-0.629-17.768-0.729-24.247,0.156-29.117c0.194-3.286,0.087-12.637-0.161-21.508l-4.546-21.097l-1.147-2.299l-0.658-2.479
			c-0.244-0.927-1.845-3.653-2.834-7.396l-8.333-48l-4.833,13.334l-1.167,26.5l-0.333,7.666L1435,650.606v20.396v7.57l-4.198,6.298
			l-24,36l-3.978,5.966l-6.534,2.95l-27.97,12.631L1336.89,768.3l-1.012,0.834l-1.094,0.729l-19.449,12.854l-6.869,4.791
			l-3.632,2.534l-4.282,1.132l-8.832,2.334l-8.426,2.229l-7.983-3.492l-5.334-2.334l-0.587-0.258l-0.567-0.286l-6-3l-1.207-0.604
			l-1.135-0.728c-4.111-2.646-10.396-6.561-14.576-8.977c-0.473-0.011-1.021-0.017-1.66-0.017
			c-10.506-0.002-29.031,1.587-38.43,2.501l-23.881,9.14l-4.525,1.733l-4.854-0.086l-37.334-0.666l-1.944-0.034l-1.918-0.336
			c-10.746-1.881-24.279-4.021-27.812-4.295c-2.756-0.021-9.452-0.377-27.691-6.667l-3.685-8.165l-4.08-21.685l-3.587-3.815
			l1.355,40.871c-21.312,15.121-28.425,15.117-34.856,15.117c-8.188,0-17.271-2.355-27-9.655l-2.462-1.846l-1.94-2.396
			c-7.896-9.719-17.995-21.544-22.491-26.15c-7.111-4.03-12.144-10.967-16.473-16.938c-0.706-0.973-1.396-1.942-2.056-2.882
			l-28.941-7.616l-1.634-0.43l-1.562-0.646l-28.422-11.762c-2.007-0.745-7.143-2.812-22.174-9.493l-0.521-0.229l-0.508-0.257l-20-10
			l-7.283-3.645l-3.739-7.229l-15-29l-0.896-1.73l-0.616-1.849l-8.903-43.029c-3.607-10.108,4.807-15.077,3.126-20.375l-6-41l-7-15
			l-2.504,67.655v2.343V643v3.078l-0.745,2.986c-8.39,33.547-14.905,41.365-17.05,43.938c-6.198,7.44-19.69,17.862-25.205,21.996
			l-1.537,1.154l-1.698,0.898l-25.546,13.625L711.4,758.762l-11.901,14.65l-17.349-7.436l-28-12l-3.582-1.534l-2.943-2.557
			l-13.833-11.983l-0.823,3.292l-4.339,3.003l0.089-38.601l-0.25-0.003l-0.089,38.772l-3.151,2.181l-13,9l-10.273,7.116
			l-11.855-3.952l-30.221-10.071l-24.736,3.905l-12.525,11.136l-3.953,3.516l-5.036,1.609c-16.142,5.164-45.142,13.83-58.013,13.83
			c-4.885,0-8.912-0.979-12.188-2.42c-0.099,0-0.2-0.001-0.308-0.001c-6.605,0-16.543,1.126-19.814,1.562l-5.721,0.758l-5.482-1.822
			c-24.176-8.06-27.796-10.474-29.958-11.916c-1.204-0.804-4.406-2.938-22.672-19.056l-3.464-3.058l-2.142-4.093l-20.732-39.578
			c-27.278-32.436-30.323-38.521-31.481-40.843c-3.038-6.073-18.494-38.794-20.246-42.504l-0.406-0.855l-0.34-0.893l-5.49-14.354
			l-7.722,35.715l-1.32,6.1l-4.032,4.769l-11,13l-1.706,2.019l-2.092,1.616l-22,17l-15.754,12.174l-15.39-12.63
			c-41.878-34.359-43.762-37.188-45.944-40.458c-1.838-2.76-4.064-6.754-7.202-19.305c-0.041-0.166-0.082-0.331-0.123-0.494
			c-6.334-2.236-14.904-4.997-21.997-7.105L112,613.919l-4.746-5.38l-15-17l-6.65-7.538l0.418-10.042
			c0.35-8.464,0.505-17.774,0.379-21.755c-1.73-4.787-6.503-16.831-10.553-26.773l-0.796-1.95l-0.456-2.058l-8-36L66,482.743v-2.744
			v-11.615l-1.584-2.448l-5.969,7.06L54,498.189v30.81v3.67l-1.054,3.514l-6,20l-0.836,2.787l-1.456,2.522L31.305,584.63L0,609.58
			V800l1276.916-0.009h6.376H3831h9.334H5101.5h19.166h1263.382l0.036,0.009l52.438,0.084l-0.383-0.092h502.615V800h66.184v-0.003
			h654.154H7680h1269h10.527h1729.414h19.164h132.328h38.996h1516.633c-0.385-0.001-0.891-0.004-1.492-0.01H12787h12.336h2385h51.125
			H15335V293.616C15326.938,296.706,15324.07,296.706,15321.266,296.706z M8448.745,525.025l0.582-3.872v1.225L8448.745,525.025z"/>
	</g>
</svg>
